<svg width="528" height="370" viewBox="0 0 528 370" fill="none" xmlns="http://www.w3.org/2000/svg">
<path d="M410.419 239.602L51.3691 287.485V52.5762H477.351L410.419 239.602Z" fill="#6C63FF"/>
<path d="M276.556 121.866H83.7012V78.4893H276.556V121.866ZM84.8356 120.739H275.421V79.6159H84.8356V120.739Z" fill="#3F3D56"/>
<path d="M120.57 93.1357H99.0156V114.542H120.57V93.1357Z" fill="#CFCCE0"/>
<path d="M117.734 111.726H95.0449V89.1924H117.734L117.734 111.726ZM96.1794 110.599H116.599V90.319H96.1794L96.1794 110.599Z" fill="#3F3D56"/>
<path d="M254.434 93.6992H153.469V94.8259H254.434V93.6992Z" fill="#3F3D56"/>
<path d="M254.434 101.585H153.469V102.712H254.434V101.585Z" fill="#3F3D56"/>
<path d="M254.434 109.472H153.469V110.598H254.434V109.472Z" fill="#3F3D56"/>
<path d="M276.556 244.671H83.7012V201.295H276.556V244.671ZM84.8356 243.545H275.421V202.422H84.8356V243.545Z" fill="#3F3D56"/>
<path d="M120.57 215.941H99.0156V237.348H120.57V215.941Z" fill="#CFCCE0"/>
<path d="M117.734 234.531H95.0449V211.998H117.734L117.734 234.531ZM96.1794 233.405H116.599V213.125H96.1794L96.1794 233.405Z" fill="#3F3D56"/>
<path d="M254.434 216.505H153.469V217.632H254.434V216.505Z" fill="#3F3D56"/>
<path d="M254.434 224.392H153.469V225.518H254.434V224.392Z" fill="#3F3D56"/>
<path d="M254.434 232.278H153.469V233.405H254.434V232.278Z" fill="#3F3D56"/>
<path d="M345.755 183.268H152.9V139.892H345.755V183.268ZM154.035 182.141H344.621V141.018H154.035V182.141Z" fill="#3F3D56"/>
<path d="M308.887 175.945H330.441V154.539H308.887V175.945Z" fill="#CFCCE0"/>
<path d="M334.411 173.128H311.723V150.595H334.411V173.128ZM312.857 172.001H333.277V151.721H312.857L312.857 172.001Z" fill="#3F3D56"/>
<path d="M275.989 155.102H175.023V156.228H275.989V155.102Z" fill="#3F3D56"/>
<path d="M275.989 162.988H175.023V164.115H275.989V162.988Z" fill="#3F3D56"/>
<path d="M275.989 170.875H175.023V172.002H275.989V170.875Z" fill="#3F3D56"/>
<path d="M306.098 109.081C311.084 109.081 315.127 105.066 315.127 100.114C315.127 95.1613 311.084 91.1465 306.098 91.1465C301.111 91.1465 297.068 95.1613 297.068 100.114C297.068 105.066 301.111 109.081 306.098 109.081Z" fill="#CFCCE0"/>
<path d="M319.143 233.577C324.129 233.577 328.172 229.562 328.172 224.61C328.172 219.657 324.129 215.643 319.143 215.643C314.156 215.643 310.113 219.657 310.113 224.61C310.113 229.562 314.156 233.577 319.143 233.577Z" fill="#CFCCE0"/>
<path d="M117.213 170.484C122.2 170.484 126.242 166.47 126.242 161.517C126.242 156.565 122.2 152.55 117.213 152.55C112.226 152.55 108.184 156.565 108.184 161.517C108.184 166.47 112.226 170.484 117.213 170.484Z" fill="#CFCCE0"/>
<path d="M463.876 34.79C457.606 24.2683 445.201 23.778 445.201 23.778C445.201 23.778 433.114 22.2428 425.36 38.2674C418.132 53.2037 408.157 67.625 423.754 71.1214L426.571 62.4133L428.316 71.7697C430.536 71.9283 432.764 71.9662 434.989 71.883C451.691 71.3474 467.598 72.0397 467.086 66.0872C466.405 58.1743 469.909 44.9139 463.876 34.79Z" fill="#2F2E41"/>
<path d="M406.673 333.804L405.087 341.68L403.104 348.571C403.104 348.571 385.856 368.654 399.337 369.638C412.818 370.622 418.369 364.125 418.369 364.125V354.674L422.334 357.431L427.885 355.265V332.032L406.673 333.804Z" fill="#2F2E41"/>
<path d="M497.469 316.281L505.993 340.301C505.993 340.301 505.2 358.612 512.139 358.612C519.078 358.612 527.206 338.332 526.215 335.182C525.224 332.032 518.285 321.006 518.285 321.006L527.206 320.809L527.999 314.312L509.562 300.136L497.469 316.281Z" fill="#2F2E41"/>
<path d="M388.037 106.987C388.037 106.987 380.9 101.868 388.037 90.0547C395.174 78.2414 405.681 64.2622 405.681 64.2622C405.681 64.2622 410.836 44.1795 416.585 46.7391C422.334 49.2986 412.422 68.3969 412.422 68.3969L401.716 90.8423L388.037 106.987Z" fill="#FFB9B9"/>
<path d="M444.934 63.2777C453.693 63.2777 460.794 56.2256 460.794 47.5265C460.794 38.8274 453.693 31.7754 444.934 31.7754C436.175 31.7754 429.074 38.8274 429.074 47.5265C429.074 56.2256 436.175 63.2777 444.934 63.2777Z" fill="#FFB9B9"/>
<path d="M435.615 58.3564L441.364 77.8484L460.793 69.1853C460.793 69.1853 451.872 60.5221 455.242 54.2217L435.615 58.3564Z" fill="#FFB9B9"/>
<path d="M442.357 74.698L440.771 82.5735L429.867 93.5996L438.591 106.988L462.182 71.7448L459.498 67.7861L442.357 74.698Z" fill="#FFB9B9"/>
<path d="M438.59 72.3356C438.59 72.3356 457.225 63.8694 460.794 66.0351C464.362 68.2009 465.155 68.9885 465.155 68.9885C465.155 68.9885 443.791 79.1917 441.488 79.0123C439.185 78.8329 438.59 72.3356 438.59 72.3356Z" fill="#CFCCE0"/>
<path d="M434.624 96.7496C434.624 96.7496 430.263 91.8273 434.624 88.0864L424.514 93.4024L421.342 113.288L425.307 125.495L447.114 101.869L456.035 91.2367L451.079 83.7549C451.079 83.7549 442.554 96.1589 434.624 96.7496Z" fill="#CFCCE0"/>
<path d="M513.329 302.105C502.624 326.519 449.493 344.239 449.493 344.239L425.307 238.509L430.065 339.12L361.471 328.291C361.471 328.291 364.246 275.918 381.692 212.717C394.979 164.585 410.218 137.352 416.733 127.1C418.771 123.89 419.954 122.345 419.954 122.345C419.788 121.872 419.629 121.401 419.478 120.931C416.782 112.214 416.131 102.999 417.575 93.9928L429.073 88.8736C429.073 88.8736 435.021 85.3296 437.003 82.3763C438.986 79.423 441.563 79.0292 441.563 79.0292C442.951 84.3452 426.496 96.7492 426.496 96.7492V121.557C426.496 121.557 428.082 120.77 431.849 106.987C435.616 93.2052 452.665 77.651 457.225 72.335C461.785 67.0189 469.913 68.5941 469.913 68.5941L459.965 128.822L459.604 131.008L460.24 135.741L473.481 234.375L513.329 302.105Z" fill="#2F2E41"/>
<path d="M419.162 94.5838H417.576C417.576 94.5838 413.016 92.0242 411.034 93.5993C409.051 95.1745 405.483 94.5838 405.483 94.5838V83.7549C405.483 83.7549 390.218 86.3144 387.244 104.625C384.27 122.936 364.445 129.827 364.445 129.827C364.445 129.827 399.139 156.21 408.853 152.469C418.567 148.728 428.083 104.231 419.162 94.5838Z" fill="#2F2E41"/>
<path d="M416.732 127.099C418.77 123.89 419.954 122.344 419.954 122.344C419.787 121.872 419.629 121.401 419.478 120.931L425.208 123.821L459.965 128.822L459.604 131.007L460.24 135.741L424.613 126.774L416.732 127.099Z" fill="#CFCCE0"/>
<path d="M453.855 142.821C453.855 142.821 457.424 179.836 480.421 180.624L477.645 121.36L467.138 125.495L453.855 142.821Z" fill="#2F2E41"/>
<path opacity="0.1" d="M453.855 142.821C453.855 142.821 457.424 179.836 480.421 180.624L477.645 121.36L467.138 125.495L453.855 142.821Z" fill="black"/>
<path d="M475.662 130.221L466.344 148.531C466.344 148.531 459.604 174.521 449.889 171.961C440.175 169.402 456.035 144.899 456.035 144.899L461.19 130.221L475.662 130.221Z" fill="#FFB9B9"/>
<path d="M466.741 70.5629L469.913 68.3971C469.913 68.3971 482.997 67.4127 483.195 81.7856C483.394 96.1585 485.773 147.153 483.195 154.831C480.618 162.51 483.195 180.624 483.195 180.624L478.437 182.79L473.481 134.158C473.481 134.158 471.697 132.386 469.12 134.552C466.543 136.718 450.881 148.925 450.881 148.925L466.741 70.5629Z" fill="#2F2E41"/>
<path d="M427.388 124.412L385.756 206.121L393.686 217.738L427.388 124.412Z" fill="#CFCCE0"/>
<path d="M425.354 124.375L428.763 215.887L416.668 223.145L425.354 124.375Z" fill="#CFCCE0"/>
<path d="M425.406 128.744C426.939 128.744 428.182 127.51 428.182 125.988C428.182 124.466 426.939 123.231 425.406 123.231C423.873 123.231 422.631 124.466 422.631 125.988C422.631 127.51 423.873 128.744 425.406 128.744Z" fill="#CFCCE0"/>
<path d="M446.719 32.7383C451.673 32.7383 455.688 28.7502 455.688 23.8306C455.688 18.911 451.673 14.9229 446.719 14.9229C441.766 14.9229 437.75 18.911 437.75 23.8306C437.75 28.7502 441.766 32.7383 446.719 32.7383Z" fill="#2F2E41"/>
<path d="M436.806 21.4868C436.806 19.2868 437.626 17.1647 439.108 15.5293C440.59 13.8939 442.628 12.8608 444.831 12.6292C443.58 12.4969 442.315 12.6274 441.118 13.0123C439.922 13.3971 438.82 14.0277 437.884 14.863C436.949 15.6984 436.201 16.7198 435.689 17.861C435.177 19.0021 434.912 20.2375 434.912 21.4868C434.912 22.7362 435.177 23.9715 435.689 25.1127C436.201 26.2539 436.949 27.2753 437.884 28.1106C438.82 28.946 439.922 29.5765 441.118 29.9614C442.315 30.3462 443.58 30.4768 444.831 30.3445C442.628 30.1128 440.59 29.0798 439.108 27.4444C437.626 25.8089 436.806 23.6868 436.806 21.4868V21.4868Z" fill="#2F2E41"/>
<path d="M461.105 33.7756L448.849 27.4004L431.925 30.0087L428.424 45.3674L437.14 45.0343L439.575 39.3916V44.9413L443.597 44.7876L445.932 35.8041L447.39 45.3674L461.688 45.0775L461.105 33.7756Z" fill="#2F2E41"/>
<path d="M83.7986 223.85L84.0863 223.232C83.9679 223.178 72.1454 217.618 63.1942 202.718C54.9281 188.96 47.4881 164.191 58.9856 124.327C63.7896 107.671 65.8397 92.7884 65.0792 80.0923C64.4578 69.7183 61.9642 60.7317 57.668 53.3822C49.1741 38.8514 36.35 35.5927 36.2214 35.5615L36.0586 36.2224C36.1845 36.253 48.7457 39.4582 57.0863 53.7424C66.6555 70.1307 67.0729 93.8159 58.3268 124.14C53.2197 141.847 51.3745 158.104 52.8427 172.458C54.0188 183.957 57.3113 194.268 62.6286 203.105C71.6918 218.167 83.6785 223.794 83.7986 223.85Z" fill="#CFCCE0"/>
<path d="M45.7825 70.9337C60.4307 70.9337 72.3053 59.1405 72.3053 44.5928C72.3053 30.0452 60.4307 18.252 45.7825 18.252C31.1344 18.252 19.2598 30.0452 19.2598 44.5928C19.2598 59.1405 31.1344 70.9337 45.7825 70.9337Z" fill="#CFCCE0"/>
<path d="M1.98266 47.6115C-0.351097 40.9022 -0.629179 33.6563 1.18358 26.7901C2.99634 19.9239 6.81852 13.7457 12.1668 9.03686C17.5151 4.32801 24.1492 1.29998 31.2303 0.335673C38.3114 -0.628631 45.5213 0.514107 51.9485 3.61938C58.3756 6.72465 63.7312 11.653 67.3381 17.7812C70.945 23.9093 72.6411 30.9621 72.2119 38.0477C71.7828 45.1332 69.2477 51.9332 64.9271 57.5878C60.6066 63.2424 54.6948 67.4976 47.9392 69.8154C38.8798 72.9122 28.9535 72.3136 20.338 68.151C11.7224 63.9884 5.12125 56.6017 1.98266 47.6115V47.6115ZM2.63032 47.3893C4.91982 53.9713 9.1232 59.7313 14.7089 63.9409C20.2946 68.1504 27.0117 70.6204 34.0109 71.0385C41.0101 71.4566 47.9769 69.8041 54.0304 66.2898C60.0839 62.7756 64.9522 57.5576 68.0196 51.2955C71.087 45.0335 72.2158 38.0087 71.2632 31.1095C70.3107 24.2103 67.3195 17.7466 62.668 12.5358C58.0166 7.32489 51.9137 3.60091 45.1311 1.83473C38.3486 0.0685624 31.191 0.339525 24.5635 2.61336C15.6829 5.67137 8.38627 12.103 4.27443 20.4972C0.162587 28.8914 -0.428688 38.5627 2.63032 47.3893V47.3893Z" fill="#CFCCE0"/>
<path d="M40.3578 131.512C52.505 131.512 62.3523 121.732 62.3523 109.668C62.3523 97.604 52.505 87.8242 40.3578 87.8242C28.2106 87.8242 18.3633 97.604 18.3633 109.668C18.3633 121.732 28.2106 131.512 40.3578 131.512Z" fill="#CFCCE0"/>
<path d="M75.8812 199.53C88.0285 199.53 97.8757 189.75 97.8757 177.686C97.8757 165.623 88.0285 155.843 75.8812 155.843C63.734 155.843 53.8867 165.623 53.8867 177.686C53.8867 189.75 63.734 199.53 75.8812 199.53Z" fill="#CFCCE0"/>
<path d="M487.312 369.061H319.355V370H487.312V369.061Z" fill="#3F3D56"/>
</svg>
