<svg width="750" height="600" viewBox="0 0 750 600" fill="none" xmlns="http://www.w3.org/2000/svg">
<g clip-path="url(#clip0)">
<path opacity="0.1" d="M215.454 102.902H159.194C155.949 102.902 153.318 105.535 153.318 108.784V117.602C153.318 120.85 155.949 123.483 159.194 123.483H215.454C218.699 123.483 221.33 120.85 221.33 117.602V108.784C221.33 105.535 218.699 102.902 215.454 102.902Z" fill="#6C63FF"/>
<path opacity="0.1" d="M286.63 123.483H230.37C227.125 123.483 224.494 126.116 224.494 129.364V138.182C224.494 141.43 227.125 144.063 230.37 144.063H286.63C289.875 144.063 292.506 141.43 292.506 138.182V129.364C292.506 126.116 289.875 123.483 286.63 123.483Z" fill="#6C63FF"/>
<path opacity="0.1" d="M357.804 144.063H301.544C298.299 144.063 295.668 146.697 295.668 149.945V158.763C295.668 162.011 298.299 164.644 301.544 164.644H357.804C361.049 164.644 363.679 162.011 363.679 158.763V149.945C363.679 146.697 361.049 144.063 357.804 144.063Z" fill="#6C63FF"/>
<path opacity="0.1" d="M215.454 72.0317H159.194C155.949 72.0317 153.318 74.6649 153.318 77.913V86.731C153.318 89.9791 155.949 92.6122 159.194 92.6122H215.454C218.699 92.6122 221.33 89.9791 221.33 86.731V77.913C221.33 74.6649 218.699 72.0317 215.454 72.0317Z" fill="#6C63FF"/>
<path opacity="0.1" d="M286.63 92.6123H230.37C227.125 92.6123 224.494 95.2454 224.494 98.4936V107.312C224.494 110.56 227.125 113.193 230.37 113.193H286.63C289.875 113.193 292.506 110.56 292.506 107.312V98.4936C292.506 95.2454 289.875 92.6123 286.63 92.6123Z" fill="#6C63FF"/>
<path opacity="0.1" d="M357.804 113.193H301.544C298.299 113.193 295.668 115.826 295.668 119.074V127.892C295.668 131.14 298.299 133.773 301.544 133.773H357.804C361.049 133.773 363.679 131.14 363.679 127.892V119.074C363.679 115.826 361.049 113.193 357.804 113.193Z" fill="#6C63FF"/>
<path opacity="0.1" d="M436.888 102.902H380.628C377.383 102.902 374.752 105.535 374.752 108.784V117.602C374.752 120.85 377.383 123.483 380.628 123.483H436.888C440.133 123.483 442.764 120.85 442.764 117.602V108.784C442.764 105.535 440.133 102.902 436.888 102.902Z" fill="#6C63FF"/>
<path opacity="0.1" d="M508.061 123.483H451.802C448.556 123.483 445.926 126.116 445.926 129.364V138.182C445.926 141.43 448.556 144.063 451.802 144.063H508.061C511.307 144.063 513.937 141.43 513.937 138.182V129.364C513.937 126.116 511.307 123.483 508.061 123.483Z" fill="#6C63FF"/>
<path opacity="0.1" d="M579.237 144.063H522.977C519.732 144.063 517.102 146.697 517.102 149.945V158.763C517.102 162.011 519.732 164.644 522.977 164.644H579.237C582.482 164.644 585.113 162.011 585.113 158.763V149.945C585.113 146.697 582.482 144.063 579.237 144.063Z" fill="#6C63FF"/>
<path opacity="0.1" d="M436.888 72.0317H380.628C377.383 72.0317 374.752 74.6649 374.752 77.913V86.731C374.752 89.9791 377.383 92.6122 380.628 92.6122H436.888C440.133 92.6122 442.764 89.9791 442.764 86.731V77.913C442.764 74.6649 440.133 72.0317 436.888 72.0317Z" fill="#6C63FF"/>
<path opacity="0.1" d="M508.061 92.6123H451.802C448.556 92.6123 445.926 95.2454 445.926 98.4936V107.312C445.926 110.56 448.556 113.193 451.802 113.193H508.061C511.307 113.193 513.937 110.56 513.937 107.312V98.4936C513.937 95.2454 511.307 92.6123 508.061 92.6123Z" fill="#6C63FF"/>
<path opacity="0.1" d="M579.237 113.193H522.977C519.732 113.193 517.102 115.826 517.102 119.074V127.892C517.102 131.14 519.732 133.773 522.977 133.773H579.237C582.482 133.773 585.113 131.14 585.113 127.892V119.074C585.113 115.826 582.482 113.193 579.237 113.193Z" fill="#6C63FF"/>
<path opacity="0.1" d="M215.454 30.8706H159.194C155.949 30.8706 153.318 33.5037 153.318 36.7519V45.5698C153.318 48.818 155.949 51.4511 159.194 51.4511H215.454C218.699 51.4511 221.33 48.818 221.33 45.5698V36.7519C221.33 33.5037 218.699 30.8706 215.454 30.8706Z" fill="#6C63FF"/>
<path opacity="0.1" d="M286.63 51.4512H230.37C227.125 51.4512 224.494 54.0843 224.494 57.3324V66.1504C224.494 69.3985 227.125 72.0316 230.37 72.0316H286.63C289.875 72.0316 292.506 69.3985 292.506 66.1504V57.3324C292.506 54.0843 289.875 51.4512 286.63 51.4512Z" fill="#6C63FF"/>
<path opacity="0.1" d="M357.804 72.0317H301.544C298.299 72.0317 295.668 74.6649 295.668 77.913V86.731C295.668 89.9791 298.299 92.6122 301.544 92.6122H357.804C361.049 92.6122 363.679 89.9791 363.679 86.731V77.913C363.679 74.6649 361.049 72.0317 357.804 72.0317Z" fill="#6C63FF"/>
<path opacity="0.1" d="M215.454 0H159.194C155.949 0 153.318 2.63313 153.318 5.88127V14.6992C153.318 17.9473 155.949 20.5805 159.194 20.5805H215.454C218.699 20.5805 221.33 17.9473 221.33 14.6992V5.88127C221.33 2.63313 218.699 0 215.454 0Z" fill="#6C63FF"/>
<path opacity="0.1" d="M286.63 20.5806H230.37C227.125 20.5806 224.494 23.2137 224.494 26.4618V35.2798C224.494 38.5279 227.125 41.161 230.37 41.161H286.63C289.875 41.161 292.506 38.5279 292.506 35.2798V26.4618C292.506 23.2137 289.875 20.5806 286.63 20.5806Z" fill="#6C63FF"/>
<path opacity="0.1" d="M357.804 41.1611H301.544C298.299 41.1611 295.668 43.7943 295.668 47.0424V55.8603C295.668 59.1085 298.299 61.7416 301.544 61.7416H357.804C361.049 61.7416 363.679 59.1085 363.679 55.8603V47.0424C363.679 43.7943 361.049 41.1611 357.804 41.1611Z" fill="#6C63FF"/>
<path opacity="0.1" d="M436.888 30.8706H380.628C377.383 30.8706 374.752 33.5037 374.752 36.7519V45.5698C374.752 48.818 377.383 51.4511 380.628 51.4511H436.888C440.133 51.4511 442.764 48.818 442.764 45.5698V36.7519C442.764 33.5037 440.133 30.8706 436.888 30.8706Z" fill="#6C63FF"/>
<path opacity="0.1" d="M508.061 51.4512H451.802C448.556 51.4512 445.926 54.0843 445.926 57.3324V66.1504C445.926 69.3985 448.556 72.0316 451.802 72.0316H508.061C511.307 72.0316 513.937 69.3985 513.937 66.1504V57.3324C513.937 54.0843 511.307 51.4512 508.061 51.4512Z" fill="#6C63FF"/>
<path opacity="0.1" d="M579.237 72.0317H522.977C519.732 72.0317 517.102 74.6649 517.102 77.913V86.731C517.102 89.9791 519.732 92.6122 522.977 92.6122H579.237C582.482 92.6122 585.113 89.9791 585.113 86.731V77.913C585.113 74.6649 582.482 72.0317 579.237 72.0317Z" fill="#6C63FF"/>
<path opacity="0.1" d="M436.888 0H380.628C377.383 0 374.752 2.63313 374.752 5.88127V14.6992C374.752 17.9473 377.383 20.5805 380.628 20.5805H436.888C440.133 20.5805 442.764 17.9473 442.764 14.6992V5.88127C442.764 2.63313 440.133 0 436.888 0Z" fill="#6C63FF"/>
<path opacity="0.1" d="M508.061 20.5806H451.802C448.556 20.5806 445.926 23.2137 445.926 26.4618V35.2798C445.926 38.5279 448.556 41.161 451.802 41.161H508.061C511.307 41.161 513.937 38.5279 513.937 35.2798V26.4618C513.937 23.2137 511.307 20.5806 508.061 20.5806Z" fill="#6C63FF"/>
<path opacity="0.1" d="M579.237 41.1611H522.977C519.732 41.1611 517.102 43.7943 517.102 47.0424V55.8603C517.102 59.1085 519.732 61.7416 522.977 61.7416H579.237C582.482 61.7416 585.113 59.1085 585.113 55.8603V47.0424C585.113 43.7943 582.482 41.1611 579.237 41.1611Z" fill="#6C63FF"/>
<path opacity="0.1" d="M215.454 469.393H159.194C155.949 469.393 153.318 472.026 153.318 475.274V484.092C153.318 487.34 155.949 489.974 159.194 489.974H215.454C218.699 489.974 221.33 487.34 221.33 484.092V475.274C221.33 472.026 218.699 469.393 215.454 469.393Z" fill="#6C63FF"/>
<path opacity="0.1" d="M286.63 489.974H230.37C227.125 489.974 224.494 492.607 224.494 495.855V504.673C224.494 507.921 227.125 510.554 230.37 510.554H286.63C289.875 510.554 292.506 507.921 292.506 504.673V495.855C292.506 492.607 289.875 489.974 286.63 489.974Z" fill="#6C63FF"/>
<path opacity="0.1" d="M357.804 510.554H301.544C298.299 510.554 295.668 513.187 295.668 516.435V525.253C295.668 528.502 298.299 531.135 301.544 531.135H357.804C361.049 531.135 363.679 528.502 363.679 525.253V516.435C363.679 513.187 361.049 510.554 357.804 510.554Z" fill="#6C63FF"/>
<path opacity="0.1" d="M215.454 438.522H159.194C155.949 438.522 153.318 441.156 153.318 444.404V453.222C153.318 456.47 155.949 459.103 159.194 459.103H215.454C218.699 459.103 221.33 456.47 221.33 453.222V444.404C221.33 441.156 218.699 438.522 215.454 438.522Z" fill="#6C63FF"/>
<path opacity="0.1" d="M286.63 459.103H230.37C227.125 459.103 224.494 461.736 224.494 464.984V473.802C224.494 477.05 227.125 479.684 230.37 479.684H286.63C289.875 479.684 292.506 477.05 292.506 473.802V464.984C292.506 461.736 289.875 459.103 286.63 459.103Z" fill="#6C63FF"/>
<path opacity="0.1" d="M357.804 479.684H301.544C298.299 479.684 295.668 482.317 295.668 485.565V494.383C295.668 497.631 298.299 500.264 301.544 500.264H357.804C361.049 500.264 363.679 497.631 363.679 494.383V485.565C363.679 482.317 361.049 479.684 357.804 479.684Z" fill="#6C63FF"/>
<path opacity="0.1" d="M436.888 469.393H380.628C377.383 469.393 374.752 472.026 374.752 475.274V484.092C374.752 487.34 377.383 489.974 380.628 489.974H436.888C440.133 489.974 442.764 487.34 442.764 484.092V475.274C442.764 472.026 440.133 469.393 436.888 469.393Z" fill="#6C63FF"/>
<path opacity="0.1" d="M508.061 489.974H451.802C448.556 489.974 445.926 492.607 445.926 495.855V504.673C445.926 507.921 448.556 510.554 451.802 510.554H508.061C511.307 510.554 513.937 507.921 513.937 504.673V495.855C513.937 492.607 511.307 489.974 508.061 489.974Z" fill="#6C63FF"/>
<path opacity="0.1" d="M579.237 510.554H522.977C519.732 510.554 517.102 513.187 517.102 516.435V525.253C517.102 528.502 519.732 531.135 522.977 531.135H579.237C582.482 531.135 585.113 528.502 585.113 525.253V516.435C585.113 513.187 582.482 510.554 579.237 510.554Z" fill="#6C63FF"/>
<path opacity="0.1" d="M436.888 438.522H380.628C377.383 438.522 374.752 441.156 374.752 444.404V453.222C374.752 456.47 377.383 459.103 380.628 459.103H436.888C440.133 459.103 442.764 456.47 442.764 453.222V444.404C442.764 441.156 440.133 438.522 436.888 438.522Z" fill="#6C63FF"/>
<path opacity="0.1" d="M508.061 459.103H451.802C448.556 459.103 445.926 461.736 445.926 464.984V473.802C445.926 477.05 448.556 479.684 451.802 479.684H508.061C511.307 479.684 513.937 477.05 513.937 473.802V464.984C513.937 461.736 511.307 459.103 508.061 459.103Z" fill="#6C63FF"/>
<path opacity="0.1" d="M579.237 479.684H522.977C519.732 479.684 517.102 482.317 517.102 485.565V494.383C517.102 497.631 519.732 500.264 522.977 500.264H579.237C582.482 500.264 585.113 497.631 585.113 494.383V485.565C585.113 482.317 582.482 479.684 579.237 479.684Z" fill="#6C63FF"/>
<path opacity="0.1" d="M215.454 397.361H159.194C155.949 397.361 153.318 399.994 153.318 403.243V412.061C153.318 415.309 155.949 417.942 159.194 417.942H215.454C218.699 417.942 221.33 415.309 221.33 412.061V403.243C221.33 399.994 218.699 397.361 215.454 397.361Z" fill="#6C63FF"/>
<path opacity="0.1" d="M286.63 417.942H230.37C227.125 417.942 224.494 420.575 224.494 423.823V432.641C224.494 435.889 227.125 438.522 230.37 438.522H286.63C289.875 438.522 292.506 435.889 292.506 432.641V423.823C292.506 420.575 289.875 417.942 286.63 417.942Z" fill="#6C63FF"/>
<path opacity="0.1" d="M357.804 438.522H301.544C298.299 438.522 295.668 441.156 295.668 444.404V453.222C295.668 456.47 298.299 459.103 301.544 459.103H357.804C361.049 459.103 363.679 456.47 363.679 453.222V444.404C363.679 441.156 361.049 438.522 357.804 438.522Z" fill="#6C63FF"/>
<path opacity="0.1" d="M215.454 366.491H159.194C155.949 366.491 153.318 369.124 153.318 372.372V381.19C153.318 384.438 155.949 387.071 159.194 387.071H215.454C218.699 387.071 221.33 384.438 221.33 381.19V372.372C221.33 369.124 218.699 366.491 215.454 366.491Z" fill="#6C63FF"/>
<path opacity="0.1" d="M286.63 387.071H230.37C227.125 387.071 224.494 389.704 224.494 392.953V401.771C224.494 405.019 227.125 407.652 230.37 407.652H286.63C289.875 407.652 292.506 405.019 292.506 401.771V392.953C292.506 389.704 289.875 387.071 286.63 387.071Z" fill="#6C63FF"/>
<path opacity="0.1" d="M357.804 407.652H301.544C298.299 407.652 295.668 410.285 295.668 413.533V422.351C295.668 425.599 298.299 428.232 301.544 428.232H357.804C361.049 428.232 363.679 425.599 363.679 422.351V413.533C363.679 410.285 361.049 407.652 357.804 407.652Z" fill="#6C63FF"/>
<path opacity="0.1" d="M436.888 397.361H380.628C377.383 397.361 374.752 399.994 374.752 403.243V412.061C374.752 415.309 377.383 417.942 380.628 417.942H436.888C440.133 417.942 442.764 415.309 442.764 412.061V403.243C442.764 399.994 440.133 397.361 436.888 397.361Z" fill="#6C63FF"/>
<path opacity="0.1" d="M508.061 417.942H451.802C448.556 417.942 445.926 420.575 445.926 423.823V432.641C445.926 435.889 448.556 438.522 451.802 438.522H508.061C511.307 438.522 513.937 435.889 513.937 432.641V423.823C513.937 420.575 511.307 417.942 508.061 417.942Z" fill="#6C63FF"/>
<path opacity="0.1" d="M579.237 438.522H522.977C519.732 438.522 517.102 441.156 517.102 444.404V453.222C517.102 456.47 519.732 459.103 522.977 459.103H579.237C582.482 459.103 585.113 456.47 585.113 453.222V444.404C585.113 441.156 582.482 438.522 579.237 438.522Z" fill="#6C63FF"/>
<path opacity="0.1" d="M436.888 366.491H380.628C377.383 366.491 374.752 369.124 374.752 372.372V381.19C374.752 384.438 377.383 387.071 380.628 387.071H436.888C440.133 387.071 442.764 384.438 442.764 381.19V372.372C442.764 369.124 440.133 366.491 436.888 366.491Z" fill="#6C63FF"/>
<path opacity="0.1" d="M508.061 387.071H451.802C448.556 387.071 445.926 389.704 445.926 392.953V401.771C445.926 405.019 448.556 407.652 451.802 407.652H508.061C511.307 407.652 513.937 405.019 513.937 401.771V392.953C513.937 389.704 511.307 387.071 508.061 387.071Z" fill="#6C63FF"/>
<path opacity="0.1" d="M579.237 407.652H522.977C519.732 407.652 517.102 410.285 517.102 413.533V422.351C517.102 425.599 519.732 428.232 522.977 428.232H579.237C582.482 428.232 585.113 425.599 585.113 422.351V413.533C585.113 410.285 582.482 407.652 579.237 407.652Z" fill="#6C63FF"/>
<path opacity="0.1" d="M381.473 600C572.994 600 728.252 587.242 728.252 571.504C728.252 555.766 572.994 543.008 381.473 543.008C189.952 543.008 34.6934 555.766 34.6934 571.504C34.6934 587.242 189.952 600 381.473 600Z" fill="#6C63FF"/>
<path d="M66.9438 147.863C99.6447 162.048 118.435 191.398 118.435 191.398C118.435 191.398 84.1997 197.731 51.491 183.554C18.7822 169.377 0 140.019 0 140.019C0 140.019 34.2351 133.678 66.9438 147.863Z" fill="#6C63FF"/>
<path d="M167.301 93.4035C177.415 76.7808 194.64 68.8652 194.64 68.8652C194.64 68.8652 195.43 87.8151 185.347 104.39C175.264 120.966 158 128.873 158 128.873C158 128.873 157.178 109.931 167.301 93.4035Z" fill="#6C63FF"/>
<path d="M92.9463 111.19C100.182 137.042 120.127 154.061 120.127 154.061C120.127 154.061 128.344 129.15 121.108 103.29C113.872 77.43 93.919 60.4194 93.919 60.4194C93.919 60.4194 85.7023 85.3297 92.9463 111.19Z" fill="#46455B"/>
<path d="M664.822 110.026H99.7097C96.5606 110.026 94.0078 112.582 94.0078 115.733V393.237C94.0078 396.389 96.5606 398.945 99.7097 398.945H664.822C667.971 398.945 670.524 396.389 670.524 393.237V115.733C670.524 112.582 667.971 110.026 664.822 110.026Z" fill="#3F3D56"/>
<path opacity="0.1" d="M94.0078 381.53H670.524V393.237C670.524 394.751 669.923 396.203 668.854 397.273C667.784 398.343 666.334 398.944 664.822 398.944H99.7097C98.1975 398.944 96.7472 398.343 95.6779 397.273C94.6085 396.203 94.0078 394.751 94.0078 393.237V381.53Z" fill="black"/>
<path d="M190.884 360.158H152.133C151.041 360.158 150.156 361.044 150.156 362.137V379.551C150.156 380.644 151.041 381.53 152.133 381.53H190.884C191.976 381.53 192.861 380.644 192.861 379.551V362.137C192.861 361.044 191.976 360.158 190.884 360.158Z" fill="#6C63FF"/>
<path d="M232.402 378.364H206.304C205.431 378.364 204.723 379.073 204.723 379.947C204.723 380.822 205.431 381.531 206.304 381.531H232.402C233.275 381.531 233.983 380.822 233.983 379.947C233.983 379.073 233.275 378.364 232.402 378.364Z" fill="#6C63FF"/>
<path d="M178.743 166.528C199.613 170.383 220.902 166.528 241.685 163.916L304.849 156C307.403 155.675 311.12 154.148 312.623 157.274C313.469 159.024 312.9 162.815 312.963 164.826C313.129 170.367 313.113 175.908 312.963 181.449C312.678 192.04 311.903 202.607 310.915 213.15C308.993 233.786 306.273 254.311 304.912 275.026C304.216 285.57 303.868 296.145 304.177 306.689C304.248 309.206 304.351 311.723 304.501 314.232C304.667 317.042 305.925 321.214 302.864 323.09C301.116 324.166 297.676 324.111 295.675 324.427C292.512 324.926 289.349 325.322 286.122 325.646C264.857 327.776 243.315 326.889 221.97 326.762L157.517 326.43L141.796 326.343C140.372 326.343 135.24 327.198 134.362 325.504C133.99 324.784 134.979 321.412 135.153 320.509C135.395 319.021 135.659 317.536 135.944 316.053C137.778 305.644 139.945 295.298 142.128 284.96C146.818 262.797 151.618 240.522 153.548 217.884C154.504 206.525 153.872 195.063 155.042 183.728C155.588 178.464 156.236 166.718 163.235 166.251C169.166 165.855 175.272 166.251 181.219 166.251C181.533 166.251 181.835 166.126 182.057 165.903C182.28 165.68 182.405 165.378 182.405 165.063C182.405 164.748 182.28 164.446 182.057 164.224C181.835 164.001 181.533 163.876 181.219 163.876C175.604 163.876 169.981 163.726 164.366 163.836C160.633 163.908 158.039 164.794 156.26 168.23C151.713 177.047 152.179 188.81 152.037 198.435C151.697 221.478 148.162 244.029 143.559 266.565C141.242 277.908 138.743 289.211 136.442 300.562C135.358 305.984 134.322 311.422 133.373 316.876C132.931 319.472 130.693 325.195 132.662 327.578C134.631 329.96 140.689 328.678 143.401 328.694L162.27 328.805L198.427 329.01C221.788 329.145 245.228 329.802 268.582 329.113C279.732 328.781 291.516 328.322 302.374 325.654C305.608 324.863 307.166 323.375 307.293 319.923C307.483 314.573 306.613 309.055 306.502 303.681C305.711 257.691 316.506 212.343 315.399 166.338C315.328 163.211 316.506 155.327 313.089 153.435C311.555 152.58 309.562 153.048 307.949 153.237C304.865 153.594 301.789 154.029 298.704 154.393L258.649 159.396C245.845 160.979 233.05 162.689 220.222 164.145C206.644 165.728 192.931 166.67 179.4 164.145C177.905 163.868 177.265 166.156 178.767 166.433L178.743 166.528Z" fill="#6C63FF"/>
<path d="M153.564 194.509L311.587 186.752C313.114 186.672 313.121 184.298 311.587 184.377L153.564 192.134C152.045 192.205 152.037 194.58 153.564 194.509Z" fill="#6C63FF"/>
<path d="M202.246 174.934C201.804 175.403 201.483 175.972 201.311 176.594C201.14 177.215 201.122 177.869 201.26 178.498C201.398 179.128 201.687 179.714 202.103 180.206C202.519 180.698 203.049 181.081 203.646 181.322C205.773 182.295 208.272 181.48 210.384 180.95C213.547 180.158 216.71 179.454 219.961 178.876C227.035 177.622 234.2 176.955 241.384 176.881C244.658 176.842 247.909 176.992 251.183 177.135C253.555 177.229 256.109 177.419 258.118 175.947C260.412 174.269 261.155 170.992 258.909 168.95C255.746 166.061 248.929 167.739 245.275 168.04C232.018 169.142 218.846 171.109 205.844 173.929C204.358 174.245 204.982 176.541 206.477 176.216C215.055 174.364 223.699 172.876 232.408 171.752C236.689 171.224 240.978 170.778 245.275 170.414C247.3 170.248 249.324 170.098 251.349 169.979C252.14 169.931 252.978 169.844 253.784 169.868C256.291 169.923 256.584 169.472 255.081 172.504C253.745 175.187 254.172 174.879 251.855 174.792C250.874 174.792 249.894 174.681 248.913 174.633C246.904 174.549 244.896 174.504 242.887 174.499C238.611 174.499 234.346 174.704 230.091 175.116C226.485 175.464 222.887 175.955 219.32 176.588C217.09 176.984 214.876 177.443 212.669 177.95C211.697 178.179 210.716 178.417 209.743 178.662C209.277 178.789 208.802 178.9 208.336 179.018C206.606 179.62 205.133 178.828 203.915 176.644C204.975 175.543 203.306 173.857 202.238 174.966L202.246 174.934Z" fill="#6C63FF"/>
<path d="M230.891 208.718C219.448 208.274 207.087 211.369 199.55 220.591C193.651 227.802 190.29 240.174 196.537 248.295C203.251 257.003 217.977 255.467 226.858 251.755C236.253 247.797 246.534 239.636 249.357 229.425C252.876 216.673 241.449 207.032 229.547 206.889C228.02 206.889 228.02 209.264 229.547 209.264C236.332 209.343 242.991 212.256 246.154 218.58C249.468 225.245 246.613 232.243 242.2 237.578C235.13 246.071 224.074 252.475 212.813 252.293C206.051 252.19 198.578 249.871 196.482 242.731C194.758 236.945 196.071 230.62 199.076 225.491C205.576 214.409 218.807 210.657 230.938 211.132C232.465 211.187 232.465 208.813 230.938 208.757L230.891 208.718Z" fill="#6C63FF"/>
<path d="M219.527 226.306C219.039 226.125 218.513 226.071 217.999 226.148C217.484 226.225 216.997 226.431 216.584 226.747C216.17 227.063 215.843 227.479 215.633 227.955C215.423 228.432 215.337 228.953 215.383 229.472C215.62 232.559 219.021 233.43 221.575 233.248C223.782 233.058 226.36 232.243 225.585 229.48C225.442 228.991 225.196 228.539 224.863 228.154C224.53 227.768 224.118 227.46 223.655 227.248C222.948 226.967 222.18 226.872 221.425 226.971C221.132 226.971 218.451 227.952 219.59 226.773L217.724 226.528C217.931 226.732 218.09 226.981 218.188 227.254C218.287 227.528 218.323 227.821 218.293 228.111C218.297 228.318 218.354 228.52 218.459 228.698C218.564 228.876 218.714 229.024 218.893 229.127C219.073 229.23 219.276 229.285 219.482 229.285C219.689 229.286 219.893 229.233 220.073 229.132C220.344 229.018 220.642 228.983 220.932 229.029C221.223 229.075 221.494 229.202 221.717 229.394C221.94 229.586 222.104 229.837 222.192 230.118C222.281 230.399 222.289 230.699 222.216 230.984C222.152 231.258 222.187 231.546 222.315 231.797C222.442 232.048 222.654 232.246 222.913 232.356C223.172 232.465 223.462 232.48 223.731 232.397C223.999 232.314 224.23 232.139 224.383 231.902C225.174 230.478 226.13 227.644 224.944 226.156C224.153 225.15 222.627 225.451 221.678 226.037C221.092 226.452 220.547 226.921 220.049 227.438C219.092 228.285 218.467 228.681 218.823 227.058C219.416 224.106 222.232 221.755 224.802 220.575L223.062 219.237C222.15 222.668 220.519 225.866 218.277 228.617L220.302 229.456C220.245 228.37 220.524 227.291 221.101 226.369C221.679 225.447 222.526 224.726 223.529 224.303H222.366L222.983 225.317C222.754 226.813 225.039 227.454 225.268 225.942C225.569 223.987 224.335 221.446 222.05 222.404C219.321 223.544 217.906 226.67 217.961 229.456C217.961 230.406 219.306 231.142 219.994 230.303C222.509 227.245 224.345 223.686 225.379 219.863C225.434 219.636 225.422 219.398 225.344 219.178C225.266 218.958 225.126 218.765 224.941 218.623C224.756 218.482 224.533 218.397 224.301 218.379C224.068 218.362 223.836 218.413 223.631 218.525C221.262 219.597 219.26 221.342 217.874 223.544C216.909 225.127 215.699 227.596 216.68 229.417C216.841 229.708 217.058 229.965 217.318 230.172C217.578 230.378 217.877 230.532 218.197 230.622C218.517 230.713 218.852 230.739 219.182 230.699C219.512 230.659 219.831 230.554 220.12 230.39C220.851 229.957 221.519 229.424 222.105 228.807C222.398 228.546 222.722 228.095 223.109 228.016C223.457 227.778 223.442 227.913 223.054 228.435C223.049 229.256 222.81 230.057 222.366 230.747L224.533 231.657C224.728 230.918 224.705 230.138 224.467 229.412C224.229 228.685 223.786 228.043 223.191 227.564C222.597 227.084 221.876 226.787 221.116 226.708C220.356 226.63 219.59 226.773 218.91 227.121L220.697 228.15C220.735 227.143 220.419 226.154 219.804 225.356C219.71 225.202 219.584 225.071 219.433 224.973C219.283 224.874 219.112 224.811 218.933 224.788C218.755 224.764 218.574 224.781 218.403 224.837C218.232 224.893 218.075 224.986 217.945 225.111C216.743 226.369 216.514 228.546 218.024 229.71C219.155 230.573 219.709 229.71 220.951 229.512C225.166 228.966 222.706 230.865 221.219 230.929C220.555 231 219.882 230.952 219.234 230.786C217.584 230.227 217.481 229.507 218.926 228.625C220.342 229.203 220.951 226.908 219.559 226.338L219.527 226.306Z" fill="#6C63FF"/>
<path d="M217.621 230.644C218.593 233.81 214.576 234.855 212.67 235.947C211.333 236.698 210.166 237.72 209.246 238.947C207.253 241.623 206.51 245.027 205.853 248.232C205.553 249.728 207.838 250.362 208.147 248.866C208.508 246.51 209.181 244.213 210.147 242.034C211.571 239.201 213.611 238.251 216.268 236.794C218.926 235.338 220.847 233.082 219.906 230.011C219.463 228.554 217.17 229.18 217.621 230.644Z" fill="#6C63FF"/>
<path d="M221.575 229.053C221.009 229.131 220.493 229.418 220.127 229.857C219.762 230.296 219.573 230.856 219.598 231.427C219.598 232.369 220.223 232.971 220.65 233.723C221.664 235.261 222.437 236.946 222.943 238.718C223.323 240.419 223.695 243.467 222.809 245.05C221.172 247.987 218.214 247.425 215.691 247.425C213.319 247.425 211.484 248.216 211.563 244.908C211.611 243.047 212.908 241.164 213.936 239.699L211.769 239.414C212.226 241.831 212.467 244.284 212.489 246.744C212.489 247.844 214.173 248.454 214.695 247.338C215.966 244.661 216.975 241.867 217.708 238.995L215.375 238.678L215.786 244.694C215.793 244.951 215.882 245.198 216.041 245.4C216.199 245.602 216.419 245.748 216.666 245.815C216.914 245.883 217.177 245.869 217.415 245.775C217.654 245.681 217.857 245.513 217.993 245.296C218.27 244.99 218.473 244.624 218.586 244.227C218.665 243.855 217.937 241.346 217.645 242.24L219.97 242.557L220.136 236.842L217.763 237.158C218.265 238.77 218.416 240.47 218.206 242.145C218.056 243.467 220.278 243.768 220.579 242.462L222.065 234.784L219.899 235.061C220.413 236.123 220.556 237.327 220.302 238.48C220.128 240 222.5 239.984 222.674 238.48C222.876 236.904 222.624 235.303 221.947 233.865C221.827 233.667 221.651 233.508 221.443 233.408C221.234 233.308 221 233.271 220.771 233.301C220.541 233.331 220.325 233.427 220.149 233.578C219.973 233.729 219.845 233.928 219.78 234.15L218.285 241.828L220.618 242.145C220.856 240.258 220.675 238.342 220.088 236.533C220.009 236.26 219.835 236.025 219.597 235.87C219.36 235.715 219.075 235.65 218.793 235.688C218.512 235.725 218.254 235.862 218.065 236.074C217.876 236.285 217.769 236.558 217.763 236.842L217.597 242.557C217.597 243.942 219.519 244.14 219.93 242.873L220.057 242.485C220.112 242.283 220.113 242.07 220.06 241.868C220.007 241.665 219.903 241.48 219.756 241.33C217.297 238.654 216.799 242.913 215.945 244.092L218.159 244.694L217.748 238.678C217.661 237.396 215.763 237 215.415 238.361C214.746 241.039 213.819 243.645 212.647 246.142L214.861 246.744C214.836 244.071 214.571 241.406 214.07 238.781C213.865 237.689 212.433 237.736 211.903 238.496C210.322 240.776 207.586 245.755 209.697 248.485C211.54 250.86 217.336 249.942 219.812 249.792C223.718 249.57 225.134 247.092 225.561 243.404C225.764 241.637 225.665 239.849 225.268 238.116C225.055 237.182 222.896 231.261 222.247 231.38C223.75 231.103 223.109 228.807 221.615 229.084L221.575 229.053Z" fill="#6C63FF"/>
<path d="M216.981 234.388L210.504 242.944L212.553 244.14L217.298 237.269L215.131 236.351L212.766 245.382C212.703 245.657 212.738 245.944 212.865 246.195C212.993 246.446 213.205 246.644 213.464 246.754C213.723 246.864 214.012 246.878 214.281 246.795C214.55 246.712 214.781 246.537 214.933 246.301C216.009 244.516 217.217 242.815 218.547 241.211L216.57 240.055C216.039 242.1 215.015 243.984 213.589 245.541L215.574 246.696C215.695 245.603 215.986 244.534 216.436 243.53C217.045 242.161 215.115 240.95 214.387 242.327C213.718 243.581 212.954 244.783 212.102 245.921L214.269 246.206L214.751 243.95L212.584 243.665L212.932 245.644C212.989 245.843 213.097 246.024 213.245 246.168C213.393 246.313 213.576 246.417 213.776 246.47C213.977 246.522 214.187 246.522 214.387 246.469C214.587 246.416 214.77 246.311 214.917 246.166C216.923 244.088 218.531 241.66 219.662 239.002H217.622C218.158 239.992 218.535 241.061 218.737 242.169C219.022 243.593 220.912 243.063 221.062 241.852C221.402 239.201 221.576 236.53 221.584 233.857H219.211V238.836C219.211 240.126 221.323 240.506 221.544 239.153C221.701 237.952 222.096 236.795 222.707 235.749H220.627C221.128 236.558 221.402 237.488 221.418 238.44C221.418 238.755 221.543 239.057 221.765 239.28C221.988 239.503 222.289 239.628 222.604 239.628C222.919 239.628 223.22 239.503 223.443 239.28C223.665 239.057 223.79 238.755 223.79 238.44L224.091 236.857H221.805C222.035 238.258 222.905 246.15 219.812 245.224C219.291 245.097 219.14 245.129 219.362 245.311L220.066 243.807L221.718 240.301L219.504 239.699C219.646 241.33 219.797 243.657 218.816 245.05C218.025 246.182 215.589 246.633 214.348 245.968C213.528 245.383 212.828 244.647 212.284 243.799L210.663 245.382C211.975 246.34 214.103 248.691 215.795 248.826C217.084 248.929 218.168 247.86 219.014 247.005C220.312 245.663 221.324 244.07 221.988 242.324C222.653 240.579 222.957 238.716 222.881 236.849C222.881 236.534 222.756 236.232 222.533 236.01C222.311 235.787 222.009 235.662 221.695 235.662C221.38 235.662 221.078 235.787 220.856 236.01C220.633 236.232 220.508 236.534 220.508 236.849V239.557C220.508 239.871 220.633 240.173 220.856 240.396C221.078 240.619 221.38 240.744 221.695 240.744C222.009 240.744 222.311 240.619 222.533 240.396C222.756 240.173 222.881 239.871 222.881 239.557V232.915C222.881 232.6 222.756 232.298 222.533 232.076C222.311 231.853 222.009 231.728 221.695 231.728C221.38 231.728 221.078 231.853 220.856 232.076C220.633 232.298 220.508 232.6 220.508 232.915C220.504 234.507 220.367 236.096 220.097 237.665L222.43 237.981C222.244 236.09 222.157 234.19 222.169 232.29C222.165 232.006 222.06 231.732 221.871 231.519C221.683 231.306 221.425 231.167 221.143 231.129C220.861 231.091 220.575 231.155 220.337 231.31C220.098 231.465 219.924 231.7 219.844 231.973C219.488 233.485 219.053 234.973 218.634 236.454L220.801 236.169L220.635 235.535C220.524 234.024 218.152 234.016 218.262 235.535C218.288 236.176 218.456 236.803 218.753 237.372C219.211 238.338 220.643 237.997 220.92 237.087C221.37 235.599 221.774 234.111 222.13 232.607L219.797 232.29C219.785 234.19 219.872 236.09 220.058 237.981C220.176 239.2 222.137 239.723 222.383 238.298C222.699 236.51 222.865 234.699 222.881 232.884H220.508V239.525H222.881V236.818H220.508C220.648 239.804 219.611 242.726 217.622 244.955C217.314 245.306 216.981 245.634 216.625 245.936C216.064 246.475 215.55 246.396 215.099 245.691C213.976 245.224 212.814 244.021 211.833 243.316C210.852 242.612 209.508 244.005 210.204 244.939C212.023 247.361 214.735 250.06 218.112 248.897C221.663 247.638 222.145 242.826 221.877 239.659C221.79 238.607 220.216 237.894 219.67 239.066C218.879 240.736 218.088 242.398 217.298 244.076C217.021 244.662 216.507 245.469 216.586 246.166C216.847 247.947 219.006 247.654 220.334 247.551C225.483 247.163 224.668 239.857 224.075 236.184C223.877 234.965 222.106 235.155 221.79 236.184C221.538 236.908 221.407 237.667 221.402 238.433H223.774C223.689 237.071 223.308 235.745 222.659 234.546C222.553 234.369 222.403 234.222 222.224 234.121C222.044 234.019 221.842 233.965 221.635 233.965C221.429 233.965 221.226 234.019 221.047 234.121C220.867 234.222 220.717 234.369 220.611 234.546C219.904 235.768 219.427 237.109 219.204 238.504L221.576 238.82V233.841C221.576 233.527 221.451 233.225 221.229 233.002C221.006 232.779 220.704 232.654 220.39 232.654C220.075 232.654 219.773 232.779 219.551 233.002C219.328 233.225 219.204 233.527 219.204 233.841C219.196 236.515 219.021 239.185 218.682 241.836L221.015 241.52C220.746 240.225 220.291 238.978 219.662 237.815C219.556 237.638 219.406 237.492 219.227 237.39C219.047 237.288 218.844 237.235 218.638 237.235C218.432 237.235 218.229 237.288 218.05 237.39C217.87 237.492 217.72 237.638 217.614 237.815C216.583 240.294 215.1 242.56 213.241 244.496L215.226 245.018L214.878 243.039C214.696 241.987 213.209 241.955 212.711 242.754C212.318 243.35 212.051 244.019 211.927 244.722C211.804 245.424 211.825 246.145 211.991 246.839C212.189 247.963 213.612 247.844 214.158 247.124C215.01 245.989 215.774 244.79 216.444 243.538L214.395 242.335C213.848 243.518 213.476 244.773 213.288 246.063C213.146 247.108 214.387 248.2 215.273 247.219C216.973 245.357 218.204 243.115 218.863 240.681C219.156 239.604 217.669 238.583 216.879 239.525C215.424 241.27 214.102 243.122 212.924 245.066L215.091 245.984L217.503 236.984C217.567 236.71 217.532 236.422 217.404 236.171C217.277 235.92 217.065 235.722 216.806 235.613C216.547 235.503 216.257 235.488 215.988 235.571C215.72 235.654 215.489 235.829 215.336 236.066L210.591 242.944C209.706 244.219 211.738 245.319 212.64 244.14L219.093 235.591C220.01 234.372 217.954 233.216 217.045 234.388H216.981Z" fill="#6C63FF"/>
<path d="M317.874 262.955C327.364 257.145 334.909 248.477 343.291 241.227C352.386 233.367 361.931 226.045 371.761 219.111C390.852 205.654 410.899 193.615 430.931 181.607C431.191 181.442 431.377 181.184 431.449 180.885C431.522 180.586 431.477 180.271 431.322 180.005C431.167 179.74 430.915 179.545 430.62 179.461C430.324 179.377 430.008 179.411 429.737 179.557C409.705 191.565 389.65 203.58 370.559 217.061C361.552 223.393 352.758 230.105 344.327 237.229C335.154 244.987 326.984 254.644 316.648 260.905C315.343 261.696 316.538 263.755 317.842 262.955H317.874Z" fill="#6C63FF"/>
<path d="M461.561 144.736C451.28 145.781 440.208 148.401 433.882 157.401C428.417 165.143 428.536 178.647 433.668 186.594C439.496 195.626 451.406 195.95 460.659 193.029C469.912 190.108 479.489 184.987 479.402 173.921C479.354 167.984 477.211 161.802 474.847 156.42C472.806 151.773 469.192 147.713 463.72 148.227C462.209 148.37 462.193 150.744 463.72 150.602C471.051 149.921 473.407 158.636 475.147 164.137C476.729 169.275 478.192 175.354 475.709 180.459C473.225 185.565 467.239 188.169 462.122 190.037C456.586 192.048 450.505 193.275 444.724 191.62C433.273 188.414 430.109 173.889 433.407 163.583C437.203 151.71 450.647 148.219 461.6 147.111C463.103 146.961 463.119 144.586 461.6 144.736H461.561Z" fill="#6C63FF"/>
<path d="M477.377 236.557C467.096 237.602 456.025 240.222 449.698 249.222C444.233 256.963 444.352 270.467 449.484 278.414C455.313 287.446 467.223 287.77 476.476 284.849C485.728 281.929 495.305 276.807 495.218 265.741C495.171 259.805 493.028 253.623 490.663 248.24C488.623 243.594 485.009 239.533 479.536 240.047C478.026 240.19 478.01 242.565 479.536 242.422C486.867 241.741 489.224 250.456 490.964 255.958C492.545 261.095 494.008 267.174 491.525 272.28C489.042 277.385 483.055 279.989 477.939 281.857C472.403 283.868 466.321 285.095 460.54 283.441C449.089 280.235 445.926 265.71 449.223 255.404C453.019 243.53 466.464 240.04 477.417 238.931C478.919 238.781 478.935 236.406 477.417 236.557H477.377Z" fill="#6C63FF"/>
<path d="M446.052 167.857L453.541 176.406C453.69 176.549 453.872 176.652 454.072 176.703C454.271 176.755 454.481 176.754 454.68 176.701C454.879 176.647 455.061 176.543 455.207 176.399C455.354 176.254 455.462 176.074 455.518 175.876C457.1 171.712 456.8 167.398 457.171 163.021C457.581 158.497 458.716 154.068 460.532 149.905C464.181 141.461 470.367 134.364 478.231 129.601C479.536 128.81 478.342 126.752 477.037 127.551C469.283 132.225 463.062 139.065 459.14 147.229C457.221 151.203 455.889 155.434 455.186 159.791C454.395 164.929 455.115 170.311 453.217 175.243L455.202 174.712L447.752 166.179C446.74 165.032 445.072 166.718 446.076 167.857H446.052Z" fill="#6C63FF"/>
<path d="M321.695 272.209C362.486 270.963 403.287 270.7 444.099 271.417C445.625 271.417 445.625 269.043 444.099 269.043C403.298 268.314 362.496 268.578 321.695 269.834C320.168 269.882 320.16 272.256 321.695 272.209Z" fill="#6C63FF"/>
<path d="M452.626 248.794C466.57 254.272 479.983 261.018 492.697 268.947C493.994 269.738 495.188 267.704 493.891 266.897C481.01 258.87 467.419 252.044 453.29 246.506C451.874 245.944 451.257 248.24 452.665 248.794H452.626Z" fill="#6C63FF"/>
<path d="M477.945 238.037C463.805 254.537 455.614 275.313 454.687 297.032C454.624 298.56 456.996 298.56 457.059 297.032C457.958 275.937 465.903 255.754 479.622 239.715C480.61 238.56 478.942 236.874 477.945 238.037Z" fill="#6C63FF"/>
<path d="M161.655 263.588L250.046 262.433L260.208 262.298C262.035 262.298 263.862 262.235 265.689 262.227C268.259 262.227 269.991 264.364 269.943 266.976C269.825 272.517 266.345 272.319 261.79 272.517L250.805 273.016L206.076 274.987C198.065 275.343 190.046 275.778 182.035 276.055C174.806 276.277 161.062 273.918 164.273 263.39C164.715 261.926 162.43 261.301 161.979 262.757C160.397 267.934 163.197 273.19 167.705 275.905C174.103 279.752 182.533 278.446 189.595 278.129L244.51 275.636L257.843 275.042C261.26 274.884 266.013 275.58 269.152 273.989C272.838 272.129 273.486 264.744 271.161 261.633C269.967 260.05 268.29 259.908 266.416 259.836C261.497 259.646 256.491 259.971 251.564 260.034L224.186 260.398L161.623 261.19C160.097 261.19 160.097 263.564 161.623 263.564L161.655 263.588Z" fill="#6C63FF"/>
<path d="M518.778 554.486C516.785 555.736 514.507 556.441 512.451 557.541C510.395 558.641 508.394 560.296 507.809 562.575C507.59 563.283 507.627 564.045 507.912 564.728C508.423 565.554 509.206 566.175 510.126 566.485C514.303 568.342 518.815 569.327 523.385 569.378C527.955 569.43 532.488 568.548 536.706 566.786C538.19 566.072 539.723 565.464 541.293 564.966C543.226 564.571 545.195 564.369 547.168 564.364C549.243 564.243 551.307 563.978 553.345 563.573C554.369 563.458 555.34 563.055 556.144 562.409C556.878 561.563 557.319 560.502 557.402 559.385C558.338 553.218 556.926 546.925 553.448 541.749C553.009 541.024 552.422 540.401 551.724 539.921C550.872 539.481 549.936 539.229 548.979 539.185C545.025 538.702 540.881 537.815 536.888 537.72C534.025 537.657 532.586 539.019 530.561 540.99C526.378 545.177 523.934 551.264 518.778 554.486Z" fill="#323444"/>
<path d="M577.054 553.9C577.054 557.779 577.52 561.887 579.869 564.982C580.943 566.32 582.244 567.459 583.712 568.346C588.679 571.512 595.259 572.676 600.494 569.992C601.34 569.612 602.063 569.004 602.582 568.235C603.373 566.858 602.953 565.14 602.511 563.62L594.934 537.341C590.039 538.093 582.843 538.623 578.493 541.109C575.338 542.905 577.054 550.433 577.054 553.9Z" fill="#323444"/>
<path d="M514.332 392.082C513.874 393.53 512.213 394.203 511.303 395.422C510.236 396.855 510.346 398.842 510.734 400.583C511.213 403.151 512.418 405.527 514.206 407.43C515.113 408.373 516.233 409.084 517.471 409.506C518.709 409.927 520.03 410.046 521.323 409.852C523.87 409.37 526.068 407.114 526.155 404.525C526.11 403.348 525.858 402.188 525.412 401.098L520.018 385.488C519.996 385.378 519.951 385.273 519.886 385.182C519.82 385.091 519.736 385.014 519.639 384.958C519.435 384.913 519.222 384.95 519.046 385.061C517.772 385.662 515.218 386.296 514.475 387.617C513.731 388.939 514.87 390.649 514.332 392.082Z" fill="#FBB3B2"/>
<path d="M511.811 391.299C513.78 390.99 515.504 389.834 517.346 389.074C519.189 388.314 521.498 388.021 523.048 389.288C523.491 389.652 523.918 390.151 524.495 390.143C523.71 386.272 522.523 382.495 520.952 378.871C520.897 378.698 520.789 378.545 520.644 378.436C520.428 378.348 520.187 378.348 519.972 378.436L514.65 379.829C512.68 380.343 512.451 380.185 512.601 382.124C512.641 382.987 513.084 391.299 511.811 391.299Z" fill="#323444"/>
<path d="M511.191 278.581C510.4 279.8 510.4 281.319 510.4 282.752C510.4 289.757 510.471 296.802 511.507 303.736C511.752 305.399 512.061 307.061 512.219 308.739C512.398 311.075 512.435 313.42 512.33 315.76L511.539 346.235C511.444 349.963 511.254 353.969 508.953 356.897C508.255 357.879 507.927 359.077 508.027 360.277C508.629 367.924 509.894 375.507 511.151 383.066C513.176 382.152 515.388 381.731 517.606 381.837C519.825 381.943 521.987 382.573 523.915 383.676C527.905 371.118 530.112 358.062 530.471 344.889C530.653 338.407 530.376 331.884 531.373 325.48C533.041 314.699 532.361 303.641 531.135 292.797C530.748 289.362 529.925 285.823 527.727 283.164C525.646 280.837 522.874 279.239 519.819 278.604C516.893 277.837 514.275 278.628 511.191 278.581Z" fill="#5B5583"/>
<path opacity="0.1" d="M511.191 278.581C510.4 279.8 510.4 281.319 510.4 282.752C510.4 289.757 510.471 296.802 511.507 303.736C511.752 305.399 512.061 307.061 512.219 308.739C512.398 311.075 512.435 313.42 512.33 315.76L511.539 346.235C511.444 349.963 511.254 353.969 508.953 356.897C508.255 357.879 507.927 359.077 508.027 360.277C508.629 367.924 509.894 375.507 511.151 383.066C513.176 382.152 515.388 381.731 517.606 381.837C519.825 381.943 521.987 382.573 523.915 383.676C527.905 371.118 530.112 358.062 530.471 344.889C530.653 338.407 530.376 331.884 531.373 325.48C533.041 314.699 532.361 303.641 531.135 292.797C530.748 289.362 529.925 285.823 527.727 283.164C525.646 280.837 522.874 279.239 519.819 278.604C516.893 277.837 514.275 278.628 511.191 278.581Z" fill="black"/>
<path d="M520.888 366.958C515.584 394.163 518.48 422.333 529.208 447.887C530.135 449.779 530.785 451.794 531.138 453.871C531.573 457.75 529.785 461.478 528.765 465.23C526.393 473.763 527.761 482.85 529.279 491.581C529.912 495.222 530.563 498.86 531.232 502.496C531.889 506.043 532.522 509.897 530.877 513.111C532.292 519.016 533.13 524.866 534.546 530.771C534.696 531.238 534.742 531.732 534.68 532.219C534.395 532.992 533.893 533.666 533.233 534.159C532.178 535.229 531.42 536.557 531.033 538.01C530.646 539.463 530.644 540.992 531.027 542.446C534.641 539.85 539.679 540.76 543.807 542.446C547.935 544.132 552 546.404 556.46 546.404C555.812 541.164 555.187 535.663 557.116 530.747C558.239 527.897 560.216 525.206 560.161 522.159C560.106 519.428 558.437 516.99 558.034 514.291C557.884 512.611 557.948 510.92 558.224 509.256C559.283 499.568 558.081 489.784 556.879 480.111C556.743 478.204 556.294 476.332 555.551 474.57C554.989 473.43 554.151 472.338 554.167 471.064C554.167 469.583 555.361 468.38 555.804 466.971C556.594 464.375 555.139 460.845 557.33 459.238C563.103 454.995 560.889 444.863 560.762 437.7C560.662 431.52 560.398 425.346 559.971 419.177C563.606 429.407 565.092 440.277 564.337 451.109C564.084 454.655 563.617 458.383 565.001 461.66C566.061 464.177 568.164 466.251 568.734 468.919C569.09 470.565 568.837 472.267 568.916 473.945C568.995 475.623 569.564 477.452 571.011 478.298C571.122 485.929 571.802 494.09 571.921 501.721C571.844 505.621 572.162 509.52 572.87 513.357C573.225 514.577 573.421 515.838 573.455 517.109C573.277 518.702 572.855 520.258 572.205 521.723C570.827 525.808 570.467 530.168 571.156 534.424C571.845 538.68 573.563 542.703 576.16 546.143C578.026 542.826 581.917 541.069 585.713 540.792C589.509 540.515 593.257 541.473 596.935 542.438C596.373 537.813 597.292 533.129 599.56 529.061C600.168 528.144 600.635 527.141 600.944 526.085C601.371 524.074 600.375 522.072 599.837 520.085C598.959 516.919 599.268 513.507 599.473 510.198C600.163 499.117 599.673 487.994 598.01 477.016C597.754 474.854 597.247 472.729 596.5 470.684C596.215 469.955 595.867 469.259 595.63 468.523C595.257 467.202 595.044 465.841 594.997 464.47L594.088 451.805C593.447 442.932 596.357 434.169 598.39 425.51C599.299 421.631 600.288 417.76 600.897 413.818C601.727 408.451 601.862 402.966 603.079 397.67C604.171 392.921 606.14 388.291 606.551 383.422C607.184 375.879 604.052 368.589 601.015 361.67C599.75 358.821 594.966 359.106 591.889 358.599C570.07 355.013 547.089 354.99 526.511 363.072C524.383 363.954 522.467 365.279 520.888 366.958Z" fill="#3C354C"/>
<path d="M536.617 226.465L539.037 235.884C539.695 238.045 540.059 240.284 540.12 242.541C540.145 243.365 539.963 244.181 539.591 244.916C539.192 245.519 538.682 246.041 538.088 246.452C536.435 247.71 535.289 250.647 533.398 251.518C534.371 253.212 535.716 252.111 537.471 252.958C540.563 254.462 543.395 256.623 546.748 257.367C549.911 258.064 553.232 257.407 556.372 256.576C560.824 255.365 565.253 253.694 568.836 250.774C572.418 247.853 574.458 245.272 574.443 240.658C570.488 241.125 566.969 237.127 565.221 233.534C564.615 232.167 564.17 230.736 563.893 229.267L561.773 219.935C559.464 220.441 557.582 222.096 555.376 222.958C553.169 223.821 550.559 223.9 548.108 224.011C543.756 224.209 539.428 224.771 535.17 225.689C534.585 225.808 533.849 226.18 533.992 226.75" fill="#FBB3B2"/>
<path opacity="0.1" d="M536.617 226.465L539.037 235.884C539.695 238.045 540.059 240.284 540.12 242.541C540.145 243.365 539.963 244.181 539.591 244.916C539.192 245.519 538.682 246.041 538.088 246.452C536.435 247.71 535.289 250.647 533.398 251.518C534.371 253.212 535.716 252.111 537.471 252.958C540.563 254.462 543.395 256.623 546.748 257.367C549.911 258.064 553.232 257.407 556.372 256.576C560.824 255.365 565.253 253.694 568.836 250.774C572.418 247.853 574.458 245.272 574.443 240.658C570.488 241.125 566.969 237.127 565.221 233.534C564.615 232.167 564.17 230.736 563.893 229.267L561.773 219.935C559.464 220.441 557.582 222.096 555.376 222.958C553.169 223.821 550.559 223.9 548.108 224.011C543.756 224.209 539.428 224.771 535.17 225.689C534.585 225.808 533.849 226.18 533.992 226.75" fill="black"/>
<path d="M547.011 231.657C558.577 231.657 567.953 222.273 567.953 210.697C567.953 199.121 558.577 189.736 547.011 189.736C535.446 189.736 526.07 199.121 526.07 210.697C526.07 222.273 535.446 231.657 547.011 231.657Z" fill="#FBB3B2"/>
<path d="M552.775 245.248C553.895 242.828 555.512 240.67 557.52 238.916C560.47 236.328 564.503 234.23 565.199 230.367L571.589 237.816C571.936 238.161 572.206 238.577 572.38 239.035C572.46 239.464 572.448 239.906 572.345 240.331C572.241 240.755 572.048 241.153 571.779 241.496C570.197 244.022 567.706 245.826 565.349 247.655C559.948 251.937 554.776 256.503 549.857 261.333C549.64 261.585 549.35 261.762 549.026 261.84C548.721 261.848 548.42 261.762 548.164 261.594C543.92 259.364 540.164 256.306 537.117 252.602C536.887 252.325 536.603 252.008 536.231 252.032C536.007 252.073 535.8 252.181 535.638 252.341C533.51 254.082 531.185 256.164 528.457 255.895C531.992 253.354 533.993 249.111 534.736 244.813C534.883 243.342 535.185 241.891 535.638 240.483C535.872 239.779 536.276 239.144 536.814 238.633C537.352 238.122 538.007 237.752 538.722 237.555C536.998 240.19 538.176 243.927 540.493 246.056C542.745 247.969 545.444 249.279 548.338 249.863C551.027 250.37 551.818 247.322 552.775 245.248Z" fill="#323444"/>
<path d="M525.532 369.111C528.514 369.847 531.337 371.098 534.231 372.024C539.507 373.678 545.059 374.262 550.562 373.742C552.256 373.705 553.903 373.18 555.307 372.23C555.679 371.929 556.019 371.573 556.414 371.296C557.076 370.899 557.793 370.602 558.542 370.417C565.793 368.145 571.867 363.246 577.759 358.449C577.949 358.291 578.162 358.093 578.146 357.839C578.119 357.667 578.036 357.508 577.909 357.388L574.809 353.826C566.679 355.211 558.352 354.689 550.103 354.483C548.41 354.408 546.713 354.453 545.026 354.618C543.397 354.808 541.792 355.219 540.186 355.568C534.089 356.897 527.857 357.404 521.681 358.275C521.249 358.307 520.83 358.437 520.455 358.655C520.195 358.856 519.972 359.103 519.799 359.383L517.632 362.43C516.791 363.455 516.171 364.644 515.813 365.921C515.307 368.296 516.366 369.087 518.383 368.779C520.765 368.43 523.193 368.542 525.532 369.111Z" fill="#323444"/>
<path d="M549.77 257.707C547.351 255.226 544.608 253.083 541.616 251.335C540.408 250.567 539.067 250.03 537.662 249.752C536.956 249.613 536.227 249.63 535.527 249.802C534.828 249.974 534.175 250.298 533.613 250.75C532.909 251.375 532.467 252.246 531.786 252.903C530.931 253.622 529.949 254.178 528.892 254.541C525.292 256.081 521.88 258.028 518.722 260.343C517 261.549 515.45 262.981 514.111 264.602C510.529 269.193 509.991 275.438 510.086 281.264C510.157 285.317 514.04 288.325 516.713 291.357C519.22 294.34 521.489 297.516 523.499 300.855C524.938 303.135 526.44 305.605 526.259 308.32C526.108 310.544 524.811 312.634 525.017 314.85C525.088 315.642 525.341 316.37 525.412 317.138C525.555 318.721 524.93 320.304 524.772 321.887C524.558 324.127 525.286 326.351 525.325 328.607C525.296 330.152 525.1 331.688 524.74 333.19C523.222 340.425 521.316 347.7 521.703 355.085L517.322 355.876C517.737 356.283 518.051 356.783 518.237 357.334C518.423 357.884 518.478 358.472 518.395 359.047C518.313 359.623 518.096 360.171 517.763 360.648C517.429 361.124 516.988 361.515 516.476 361.789C523.317 364.077 530.711 362.921 537.963 362.913C543.965 362.913 549.944 363.705 555.938 363.594C561.933 363.483 568.117 362.399 573.06 359.003C574.404 358.085 575.638 357.008 577.054 356.209C578.95 355.225 580.993 354.557 583.103 354.23C587.013 353.484 590.986 353.128 594.966 353.169C596.911 353.169 599.031 353.248 600.581 352.077C602.289 350.779 602.724 348.428 602.953 346.298C603.183 344.05 603.325 341.795 603.365 339.539C603.431 337.782 603.338 336.023 603.088 334.283C602.85 333.01 602.541 331.752 602.162 330.515L599.181 320.003C597.947 315.665 599.663 310.908 600.027 306.412C600.114 305.351 600.13 304.116 599.316 303.436C599.023 303.19 598.62 303.024 598.525 302.644C598.482 302.464 598.477 302.277 598.51 302.094C598.542 301.912 598.612 301.738 598.714 301.583C600.296 298.417 602.669 295.623 604.835 292.766C608.475 287.753 611.854 282.556 614.958 277.196C613.986 265.978 609.267 255.415 601.561 247.211C599.98 245.494 598.169 243.847 595.954 243.072C594.507 242.629 593.007 242.387 591.494 242.351C585.294 241.932 578.841 241.56 573.439 238.441C573.052 238.172 572.613 237.986 572.15 237.895C570.956 237.76 570.086 238.94 569.311 239.874C567.318 242.248 564.384 243.61 561.806 245.359C556.998 248.628 553.242 253.124 549.77 257.707Z" fill="#5B5583"/>
<path d="M615.497 280.433C616.731 284.343 616.612 288.523 617.016 292.599C617.254 295.059 617.685 297.497 618.305 299.889C618.587 301.204 619.096 302.461 619.807 303.602C620.519 304.647 621.539 305.494 621.99 306.673C622.236 307.472 622.346 308.307 622.314 309.143L622.409 314.604C622.612 317.499 622.172 320.402 621.12 323.106L617.711 333.483C615.869 339.103 613.979 344.81 610.657 349.702C610.189 350.53 609.48 351.195 608.625 351.61C607.955 351.787 607.268 351.893 606.576 351.926C605.371 352.142 604.278 352.771 603.485 353.705C602.693 354.64 602.251 355.822 602.235 357.048C601.443 355.89 600.456 354.88 599.317 354.064L592.381 348.523C590.008 346.591 587.533 344.628 584.654 343.512C588.526 342.302 591.963 339.993 594.549 336.865C597.135 333.737 598.758 329.925 599.222 325.892C599.219 324.691 599.49 323.506 600.012 322.425C600.59 321.491 601.657 320.779 601.736 319.678C601.831 318.293 600.265 317.248 600.265 315.863C600.265 314.945 600.946 314.185 601.246 313.322C601.527 312.256 601.527 311.135 601.246 310.069L600.289 304.75C600.233 304.217 600.072 303.7 599.815 303.23C599.457 302.779 599.06 302.36 598.628 301.979C596.984 300.135 597.711 297.23 598.628 294.958C600.735 289.915 603.449 285.149 606.711 280.765C607.872 279.293 608.947 277.755 609.93 276.159C610.768 274.702 610.958 272.684 611.843 271.409C612.982 274.401 614.524 277.354 615.497 280.433Z" fill="#5B5583"/>
<path d="M584.41 343.837C584.057 344.099 583.752 344.42 583.508 344.786C582.576 345.957 581.335 346.843 579.926 347.343C580.717 347.913 581.436 348.475 582.18 349.053C587.68 353.305 592.716 358.126 597.205 363.436C597.704 361.655 600.685 361.781 601.412 360.079C601.584 359.592 601.638 359.072 601.571 358.56C601.42 355.893 601.039 353.245 600.432 350.644C600.192 349.305 599.652 348.038 598.85 346.94C597.743 345.602 596.019 344.961 594.374 344.407C591.883 343.536 586.94 342.309 584.41 343.837Z" fill="#323444"/>
<path d="M574.524 350.058C572.151 351.815 570.072 354.016 567.407 355.219C565.524 356.074 563.381 356.446 561.736 357.72C562.63 359.691 564.955 360.712 567.114 360.633C569.275 360.421 571.346 359.661 573.132 358.425C574.548 357.554 576.208 356.541 577.751 357.15C577.988 358.354 576.96 359.485 576.96 360.704C576.96 361.923 577.972 362.81 578.968 363.451C583.713 366.514 589.819 366.261 595.473 365.905C595.797 365.917 596.117 365.823 596.382 365.636C596.505 365.493 596.598 365.327 596.656 365.147C596.715 364.968 596.737 364.779 596.722 364.591C596.794 363.34 596.825 362.098 596.833 360.847C596.993 359.839 596.862 358.805 596.456 357.869C596.05 356.932 595.385 356.131 594.54 355.559C591.471 352.919 588.162 350.574 584.654 348.554C581.175 346.536 577.648 347.731 574.524 350.058Z" fill="#FBB3B2"/>
<path d="M554.364 201.934C550.853 202.354 548.298 205.101 548.654 208.085C549.01 211.069 552.142 213.127 555.653 212.7C559.164 212.272 561.718 209.533 561.363 206.557C561.007 203.581 557.875 201.515 554.364 201.934ZM555.558 211.876C552.585 212.233 549.935 210.483 549.627 207.966C549.318 205.449 551.493 203.122 554.459 202.766C557.424 202.409 560.081 204.159 560.39 206.676C560.698 209.193 558.524 211.52 555.558 211.876Z" fill="#3C354C"/>
<path d="M537.251 203.992C533.739 204.412 531.185 207.159 531.541 210.135C531.897 213.111 535.029 215.177 538.54 214.758C542.051 214.338 544.606 211.591 544.25 208.607C543.894 205.623 540.762 203.573 537.251 203.992ZM538.445 213.926C535.471 214.283 532.822 212.533 532.522 210.024C532.221 207.515 534.38 205.18 537.354 204.816C540.327 204.452 542.976 206.209 543.277 208.726C543.577 211.243 541.411 213.57 538.445 213.926Z" fill="#3C354C"/>
<path d="M524.543 205.52L532.174 207.151L531.423 209.161L524.227 207.048L524.543 205.52Z" fill="#3C354C"/>
<path d="M567.081 200.407L560.043 203.803L561.253 205.576L567.745 201.816L567.081 200.407Z" fill="#3C354C"/>
<path d="M543.547 206.644L548.901 206.003L548.624 207.333L544.029 207.641L543.547 206.644Z" fill="#3C354C"/>
<path d="M533.163 204.847C533.667 203.763 533.936 202.584 533.954 201.388C533.973 200.672 534.095 199.963 534.318 199.283C534.706 198.418 535.298 197.661 536.042 197.074C538.509 194.984 542.044 193.908 545.532 193.758C549.334 193.582 553.117 194.401 556.508 196.132C557.544 196.618 558.472 197.307 559.237 198.159C560.344 199.512 560.581 201.262 561.696 202.599C562.457 203.411 563.415 204.012 564.476 204.345C565.537 204.678 566.666 204.731 567.754 204.499C568.142 203.122 567.635 201.665 567.833 200.256C568.145 199.049 568.566 197.873 569.091 196.742C570.316 193.124 568.529 188.929 564.844 186.768C563.555 185.977 562.028 185.462 561.064 184.393C560.099 183.325 559.869 182.217 559.205 181.148C557.442 178.322 552.878 177 549.407 178.306C548.315 178.718 547.351 179.343 546.243 179.787C544.187 180.634 541.846 180.784 539.585 181.069C537.355 181.275 535.175 181.848 533.131 182.763C531.178 183.729 529.541 185.28 529.09 187.132C528.877 187.987 528.924 188.874 528.711 189.721C527.619 194.019 520.573 196.108 520.178 200.494C520.035 202.077 520.897 203.597 521.973 204.887C522.716 205.765 524.495 208.116 525.753 208.457C527.01 208.797 527.967 207.602 529.169 207.19C531.067 206.597 532.214 206.47 533.163 204.847Z" fill="#CBCEDA"/>
<path d="M622.375 483.641C622.375 523.409 647.302 555.594 678.104 555.594L622.375 483.641Z" fill="#46455B"/>
<path d="M678.105 555.601C678.105 515.382 705.927 482.841 740.304 482.841L678.105 555.601Z" fill="#6C63FF"/>
<path d="M642.572 487.25C642.572 525.031 658.468 555.601 678.105 555.601L642.572 487.25Z" fill="#6C63FF"/>
<path d="M678.105 555.602C678.105 504.214 710.261 462.625 749.993 462.625L678.105 555.602Z" fill="#46455B"/>
<path opacity="0.1" d="M675.693 569.343C683.345 569.343 689.548 568.294 689.548 567C689.548 565.706 683.345 564.657 675.693 564.657C668.041 564.657 661.838 565.706 661.838 567C661.838 568.294 668.041 569.343 675.693 569.343Z" fill="#6C63FF"/>
<path d="M666.385 556.108C666.385 556.108 674.293 555.863 676.666 554.169C679.038 552.475 688.821 550.44 689.414 553.163C690.007 555.886 701.276 566.707 692.363 566.778C683.451 566.85 671.628 565.385 669.255 563.937C666.883 562.488 666.385 556.108 666.385 556.108Z" fill="#A8A8A8"/>
<path opacity="0.2" d="M692.531 565.828C683.61 565.9 671.802 564.435 669.422 562.987C667.611 561.886 666.891 557.921 666.646 556.1H666.385C666.385 556.1 666.883 562.48 669.263 563.929C671.644 565.377 683.452 566.842 692.373 566.77C694.951 566.77 695.836 565.828 695.789 564.475C695.433 565.298 694.492 565.813 692.531 565.828Z" fill="black"/>
<path d="M17.7852 506.881C17.7852 538.544 37.6113 564.127 62.1191 564.127L17.7852 506.881Z" fill="#46455B"/>
<path d="M62.1191 564.127C62.1191 532.132 84.2624 506.24 111.601 506.24L62.1191 564.127Z" fill="#6C63FF"/>
<path d="M33.8477 509.763C33.8477 539.842 46.5009 564.143 62.1198 564.143L33.8477 509.763Z" fill="#6C63FF"/>
<path d="M62.1191 564.127C62.1191 523.243 87.7025 490.156 119.312 490.156L62.1191 564.127Z" fill="#46455B"/>
<path opacity="0.1" d="M60.198 575.066C66.2865 575.066 71.2222 574.229 71.2222 573.198C71.2222 572.166 66.2865 571.33 60.198 571.33C54.1095 571.33 49.1738 572.166 49.1738 573.198C49.1738 574.229 54.1095 575.066 60.198 575.066Z" fill="#6C63FF"/>
<path d="M52.7949 564.531C52.7949 564.531 59.082 564.333 60.9721 562.947C62.8622 561.562 70.6519 559.979 71.1185 562.156C71.585 564.333 80.5689 572.929 73.4909 572.984C66.413 573.04 56.9942 571.876 55.1041 570.728C53.2141 569.581 52.7949 564.531 52.7949 564.531Z" fill="#A8A8A8"/>
<path opacity="0.2" d="M73.5938 572.296C66.4763 572.351 57.097 571.187 55.207 570.032C53.7676 569.161 53.1982 566.003 53.0005 564.554H52.7949C52.7949 564.554 53.1903 569.628 55.0804 570.784C56.9705 571.939 66.3735 573.095 73.4672 573.04C75.5155 573.04 76.2272 572.296 76.1877 571.211C75.903 571.844 75.1201 572.248 73.5938 572.296Z" fill="black"/>
</g>
<defs>
<clipPath id="clip0">
<rect width="750" height="600" fill="white"/>
</clipPath>
</defs>
</svg>
