<svg width="528" height="370" viewBox="0 0 528 370" fill="none" xmlns="http://www.w3.org/2000/svg">
<g clip-path="url(#clip0)">
<path d="M264 370C409.803 370 528 362.076 528 352.3C528 342.524 409.803 334.6 264 334.6C118.197 334.6 0 342.524 0 352.3C0 362.076 118.197 370 264 370Z" fill="#E6E6E6"/>
<path d="M403.498 0C403.001 0.000557693 402.523 0.211992 402.171 0.587902C401.82 0.963812 401.622 1.47349 401.621 2.00511V80.6025C401.622 81.1341 401.82 81.6438 402.171 82.0197C402.523 82.3956 403.001 82.607 403.498 82.6076H489.443C489.94 82.607 490.418 82.3956 490.769 82.0197C491.121 81.6438 491.319 81.1341 491.32 80.6025V2.00513C491.319 1.47351 491.121 0.963831 490.769 0.587921C490.418 0.212012 489.94 0.000578612 489.443 1.92496e-05L403.498 0Z" fill="#E6E6E6"/>
<path d="M415.418 47.3076C415.232 47.3482 415.064 47.4563 414.944 47.6138C414.824 47.7712 414.758 47.9682 414.758 48.1715C414.758 48.3747 414.824 48.5718 414.944 48.7292C415.064 48.8866 415.232 48.9947 415.418 49.0353H478.297C478.483 48.9947 478.651 48.8866 478.771 48.7292C478.892 48.5718 478.957 48.3747 478.957 48.1715C478.957 47.9682 478.892 47.7712 478.771 47.6138C478.651 47.4563 478.483 47.3482 478.297 47.3076H415.418Z" fill="white"/>
<path d="M414.645 57.5732C414.459 57.6138 414.291 57.7219 414.171 57.8794C414.05 58.0368 413.984 58.2338 413.984 58.4371C413.984 58.6404 414.05 58.8374 414.171 58.9948C414.291 59.1522 414.459 59.2604 414.645 59.3009H477.523C477.71 59.2604 477.877 59.1522 477.998 58.9948C478.118 58.8374 478.184 58.6404 478.184 58.4371C478.184 58.2338 478.118 58.0368 477.998 57.8794C477.877 57.7219 477.71 57.6138 477.523 57.5732H414.645Z" fill="white"/>
<path d="M415.418 67.8379C415.232 67.8785 415.064 67.9866 414.944 68.144C414.824 68.3014 414.758 68.4985 414.758 68.7017C414.758 68.905 414.824 69.102 414.944 69.2594C415.064 69.4169 415.232 69.525 415.418 69.5656H478.297C478.483 69.525 478.651 69.4169 478.771 69.2594C478.892 69.102 478.957 68.905 478.957 68.7017C478.957 68.4985 478.892 68.3014 478.771 68.144C478.651 67.9866 478.483 67.8785 478.297 67.8379H415.418Z" fill="white"/>
<path d="M415.418 13.042C415.232 13.0826 415.064 13.1908 414.944 13.3483C414.824 13.5057 414.758 13.7028 414.758 13.9061C414.758 14.1094 414.824 14.3065 414.944 14.4639C415.064 14.6214 415.232 14.7296 415.418 14.7702H478.297C478.483 14.7296 478.651 14.6214 478.771 14.4639C478.892 14.3065 478.957 14.1094 478.957 13.9061C478.957 13.7028 478.892 13.5057 478.771 13.3483C478.651 13.1908 478.483 13.0826 478.297 13.042H415.418Z" fill="white"/>
<path d="M414.645 23.3066C414.459 23.3473 414.291 23.4554 414.171 23.6129C414.05 23.7704 413.984 23.9674 413.984 24.1707C413.984 24.374 414.05 24.5711 414.171 24.7286C414.291 24.886 414.459 24.9942 414.645 25.0348H477.523C477.71 24.9942 477.878 24.886 477.998 24.7286C478.118 24.5711 478.184 24.374 478.184 24.1707C478.184 23.9674 478.118 23.7704 477.998 23.6129C477.878 23.4554 477.71 23.3473 477.523 23.3066H414.645Z" fill="white"/>
<path d="M415.419 33.5713C415.232 33.6119 415.064 33.7201 414.944 33.8776C414.824 34.035 414.758 34.2321 414.758 34.4354C414.758 34.6387 414.824 34.8357 414.944 34.9932C415.064 35.1507 415.232 35.2589 415.419 35.2995H478.297C478.483 35.2589 478.651 35.1507 478.771 34.9932C478.892 34.8357 478.957 34.6387 478.957 34.4354C478.957 34.2321 478.892 34.035 478.771 33.8776C478.651 33.7201 478.483 33.6119 478.297 33.5713H415.419Z" fill="white"/>
<path d="M365.084 32.1406C364.586 32.1412 364.109 32.3526 363.757 32.7285C363.405 33.1044 363.208 33.6141 363.207 34.1457V112.743C363.208 113.275 363.405 113.784 363.757 114.16C364.109 114.536 364.586 114.748 365.084 114.748H451.029C451.526 114.748 452.003 114.536 452.355 114.16C452.707 113.784 452.905 113.275 452.906 112.743V34.1457C452.905 33.6141 452.707 33.1044 452.355 32.7285C452.003 32.3526 451.526 32.1412 451.029 32.1406H365.084Z" fill="#6C63FF"/>
<path d="M377.002 79.4482C376.816 79.4888 376.648 79.5969 376.528 79.7544C376.408 79.9118 376.342 80.1088 376.342 80.3121C376.342 80.5153 376.408 80.7124 376.528 80.8698C376.648 81.0272 376.816 81.1353 377.002 81.1759H439.881C440.067 81.1353 440.235 81.0272 440.355 80.8698C440.476 80.7124 440.541 80.5153 440.541 80.3121C440.541 80.1088 440.476 79.9118 440.355 79.7544C440.235 79.5969 440.067 79.4888 439.881 79.4482H377.002Z" fill="white"/>
<path d="M376.231 89.7129C376.044 89.7535 375.877 89.8616 375.756 90.019C375.636 90.1764 375.57 90.3735 375.57 90.5767C375.57 90.78 375.636 90.977 375.756 91.1345C375.877 91.2919 376.044 91.4 376.231 91.4406H439.109C439.296 91.4 439.463 91.2919 439.584 91.1345C439.704 90.977 439.77 90.78 439.77 90.5767C439.77 90.3735 439.704 90.1764 439.584 90.019C439.463 89.8616 439.296 89.7535 439.109 89.7129H376.231Z" fill="white"/>
<path d="M377.002 99.9785C376.816 100.019 376.648 100.127 376.528 100.285C376.408 100.442 376.342 100.639 376.342 100.842C376.342 101.046 376.408 101.243 376.528 101.4C376.648 101.557 376.816 101.666 377.002 101.706H439.881C440.067 101.666 440.235 101.557 440.355 101.4C440.476 101.243 440.541 101.046 440.541 100.842C440.541 100.639 440.476 100.442 440.355 100.285C440.235 100.127 440.067 100.019 439.881 99.9785H377.002Z" fill="white"/>
<path d="M377.002 45.1826C376.816 45.2232 376.648 45.3314 376.528 45.4889C376.408 45.6463 376.342 45.8434 376.342 46.0467C376.342 46.25 376.408 46.4471 376.528 46.6045C376.648 46.762 376.816 46.8702 377.002 46.9108H439.881C440.067 46.8702 440.235 46.762 440.355 46.6045C440.476 46.4471 440.542 46.25 440.542 46.0467C440.542 45.8434 440.476 45.6463 440.355 45.4889C440.235 45.3314 440.067 45.2232 439.881 45.1826H377.002Z" fill="white"/>
<path d="M376.231 55.4473C376.044 55.4879 375.877 55.5961 375.756 55.7535C375.636 55.911 375.57 56.108 375.57 56.3113C375.57 56.5147 375.636 56.7117 375.756 56.8692C375.877 57.0266 376.044 57.1348 376.231 57.1754H439.109C439.296 57.1348 439.463 57.0266 439.584 56.8692C439.704 56.7117 439.77 56.5147 439.77 56.3113C439.77 56.108 439.704 55.911 439.584 55.7535C439.463 55.5961 439.296 55.4879 439.109 55.4473H376.231Z" fill="white"/>
<path d="M377.002 65.7119C376.816 65.7525 376.648 65.8607 376.528 66.0182C376.408 66.1756 376.342 66.3727 376.342 66.576C376.342 66.7793 376.408 66.9764 376.528 67.1338C376.648 67.2913 376.816 67.3995 377.002 67.4401H439.881C440.067 67.3995 440.235 67.2913 440.355 67.1338C440.476 66.9764 440.542 66.7793 440.542 66.576C440.542 66.3727 440.476 66.1756 440.355 66.0182C440.235 65.8607 440.067 65.7525 439.881 65.7119H377.002Z" fill="white"/>
<path d="M486.496 325.342L486.947 334.484L496.406 333.522L495.506 324.38L486.496 325.342Z" fill="#FBBEBE"/>
<path d="M450.008 314.757L450.458 323.899L459.918 322.936L459.017 313.794L450.008 314.757Z" fill="#FBBEBE"/>
<path d="M493.026 200.958L458.791 207.213L456.539 273.615L447.529 315.959L461.944 322.695L475.909 280.833L480.864 243.783L484.468 280.833L484.918 327.507L506.991 326.063L501.714 234.665C501.035 222.908 498.077 211.43 493.026 200.958V200.958Z" fill="#2F2E41"/>
<path d="M487.846 331.117C487.846 331.117 484.692 327.267 484.692 328.711C484.692 330.154 482.891 344.108 482.891 344.108C482.891 344.108 495.053 347.958 495.053 350.363C495.053 352.769 512.621 356.619 512.171 351.807C511.72 346.995 496.405 328.711 496.405 328.711C496.405 328.711 490.098 327.748 487.846 331.117Z" fill="#2F2E41"/>
<path d="M451.907 320.588C451.907 320.588 450.946 315.577 450.278 316.832C449.611 318.086 441.588 329.266 441.588 329.266C441.588 329.266 450.38 339.033 449.267 341.125C448.154 343.216 461.646 355.837 463.48 351.416C465.315 346.995 460.46 323.015 460.46 323.015C460.46 323.015 455.423 318.849 451.907 320.588Z" fill="#2F2E41"/>
<path d="M451.217 147.915L476.155 150.462L484.468 126.265L460.594 120.121L451.217 147.915Z" fill="#2F2E41"/>
<path d="M471.631 142.977C478.597 142.977 484.244 136.945 484.244 129.504C484.244 122.063 478.597 116.031 471.631 116.031C464.665 116.031 459.018 122.063 459.018 129.504C459.018 136.945 464.665 142.977 471.631 142.977Z" fill="#FBBEBE"/>
<path d="M464.423 137.684C464.423 137.684 464.423 146.826 457.666 150.675C450.909 154.525 473.883 158.855 473.883 158.855L476.135 150.675C476.135 150.675 469.378 147.307 475.234 139.608L464.423 137.684Z" fill="#FBBEBE"/>
<path d="M475.233 148.27C475.233 148.27 466.983 153.728 460.072 148.834L457.215 148.27L448.656 150.195L444.602 166.555L459.917 207.454C459.917 207.454 486.495 212.266 491.9 201.68L488.747 158.375L480.188 147.308L475.233 148.27Z" fill="#575A89"/>
<path d="M479.288 148.751L494.153 126.617L492.802 124.211L473.432 113.625V106.889L503.613 115.55L505.655 119.006L487.846 160.299L479.288 148.751Z" fill="#575A89"/>
<path d="M449.556 150.675L448.656 150.194L426.132 149.232L443.25 133.353L437.845 126.136L412.168 146.826V151.638L448.656 167.998L449.556 150.675Z" fill="#575A89"/>
<path d="M437.619 128.301L440.772 126.376C440.772 126.376 447.529 116.753 450.232 120.602C452.935 124.452 443.926 131.669 443.926 131.669L438.971 133.594L437.619 128.301Z" fill="#FBBEBE"/>
<path d="M474.783 108.332L469.828 105.445C469.828 105.445 454.963 106.889 456.765 110.257C458.567 113.625 468.927 110.738 468.927 110.738L474.783 112.663V108.332Z" fill="#FBBEBE"/>
<path d="M461.947 116.501C461.947 116.501 456.157 118.562 455.863 126.703C455.833 128.006 455.969 129.306 456.265 130.569C456.591 132.045 456.801 135.221 454.274 139.371C452.582 142.11 451.037 144.95 449.645 147.876L449.627 147.915L455.986 148.764L457.338 137.505C457.993 132.047 459.398 126.721 461.506 121.7L461.55 121.595C461.55 121.595 464.332 127.114 469.896 127.114L467.909 124.991C467.909 124.991 476.652 128.812 479.831 128.812C479.831 128.812 482.216 130.51 479.831 133.057C477.447 135.604 472.678 141.547 475.46 146.217C478.242 150.887 475.857 152.16 475.857 152.16L480.229 149.613L482.216 148.34V150.038L492.549 148.764C492.549 148.764 495.331 148.34 489.37 141.123C489.37 141.123 487.795 138.32 488.484 135.903C489.05 134.066 489.199 132.112 488.918 130.201C487.583 122.243 482.343 106.421 461.947 116.501Z" fill="#2F2E41"/>
<path d="M99.4172 124.36C99.1056 124.361 98.807 124.493 98.5867 124.728C98.3664 124.964 98.2425 125.283 98.2422 125.615V221.503C98.2425 221.836 98.3664 222.155 98.5866 222.39C98.8069 222.625 99.1056 222.758 99.4172 222.758H304.333C304.644 222.758 304.943 222.625 305.163 222.39C305.384 222.155 305.507 221.836 305.508 221.503V125.615C305.507 125.283 305.384 124.964 305.163 124.728C304.943 124.493 304.644 124.361 304.333 124.36H99.4172Z" fill="#E6E6E6"/>
<path d="M276.604 143.277H127.147C126.962 143.277 126.778 143.239 126.607 143.163C126.435 143.088 126.28 142.977 126.148 142.837C126.017 142.697 125.913 142.531 125.842 142.348C125.771 142.165 125.734 141.969 125.734 141.771C125.734 141.573 125.771 141.377 125.842 141.194C125.913 141.011 126.017 140.845 126.148 140.705C126.28 140.565 126.435 140.454 126.607 140.378C126.778 140.303 126.962 140.264 127.147 140.265H276.604C276.978 140.265 277.335 140.425 277.599 140.707C277.863 140.989 278.011 141.372 278.011 141.771C278.011 142.17 277.863 142.552 277.599 142.835C277.335 143.117 276.978 143.276 276.604 143.277V143.277Z" fill="white"/>
<path d="M276.603 155.326H127.146C126.772 155.326 126.414 155.167 126.149 154.885C125.885 154.602 125.736 154.219 125.736 153.82C125.736 153.42 125.885 153.037 126.149 152.755C126.414 152.472 126.772 152.313 127.146 152.313H276.603C276.977 152.313 277.336 152.472 277.6 152.755C277.865 153.037 278.013 153.42 278.013 153.82C278.013 154.219 277.865 154.602 277.6 154.885C277.336 155.167 276.977 155.326 276.603 155.326Z" fill="white"/>
<path d="M276.604 167.374H127.147C126.962 167.375 126.778 167.336 126.607 167.261C126.435 167.185 126.28 167.074 126.148 166.934C126.017 166.795 125.913 166.628 125.842 166.445C125.771 166.263 125.734 166.066 125.734 165.868C125.734 165.67 125.771 165.474 125.842 165.291C125.913 165.108 126.017 164.942 126.148 164.802C126.28 164.662 126.435 164.552 126.607 164.476C126.778 164.401 126.962 164.362 127.147 164.362H276.604C276.978 164.363 277.335 164.522 277.599 164.805C277.863 165.087 278.011 165.469 278.011 165.868C278.011 166.267 277.863 166.65 277.599 166.932C277.335 167.215 276.978 167.374 276.604 167.374V167.374Z" fill="white"/>
<path d="M276.603 179.332H127.146C126.772 179.332 126.414 179.174 126.149 178.891C125.885 178.609 125.736 178.226 125.736 177.826C125.736 177.427 125.885 177.044 126.149 176.761C126.414 176.479 126.772 176.32 127.146 176.32H276.603C276.977 176.32 277.336 176.479 277.6 176.761C277.865 177.044 278.013 177.427 278.013 177.826C278.013 178.226 277.865 178.609 277.6 178.891C277.336 179.174 276.977 179.332 276.603 179.332V179.332Z" fill="white"/>
<path d="M276.604 191.38H127.147C126.962 191.381 126.778 191.342 126.607 191.267C126.435 191.191 126.28 191.08 126.148 190.94C126.017 190.8 125.913 190.634 125.842 190.451C125.771 190.268 125.734 190.072 125.734 189.874C125.734 189.676 125.771 189.48 125.842 189.297C125.913 189.114 126.017 188.948 126.148 188.808C126.28 188.668 126.435 188.557 126.607 188.482C126.778 188.406 126.962 188.368 127.147 188.368H276.604C276.978 188.368 277.337 188.527 277.601 188.809C277.866 189.092 278.014 189.475 278.014 189.874C278.014 190.274 277.866 190.657 277.601 190.939C277.337 191.222 276.978 191.38 276.604 191.38V191.38Z" fill="white"/>
<path d="M238.668 201.406C238.561 201.406 238.459 201.452 238.384 201.532C238.308 201.613 238.266 201.722 238.266 201.836V213.237C238.266 213.351 238.308 213.46 238.384 213.541C238.459 213.621 238.561 213.667 238.668 213.667H276.002C276.109 213.667 276.212 213.621 276.287 213.541C276.362 213.46 276.405 213.351 276.405 213.237V201.836C276.405 201.722 276.362 201.613 276.287 201.532C276.212 201.452 276.109 201.406 276.002 201.406H238.668Z" fill="white"/>
<path d="M34.1583 222.539C34.1583 222.539 31.0758 262.129 30.414 270.612C29.9602 275.93 28.8474 281.16 27.1049 286.165C26.3128 287.937 25.8626 289.86 25.7812 291.821V327.875C25.7812 327.875 23.1338 327.875 23.7957 330.703C24.4575 333.531 25.1193 338.48 25.1193 338.48H35.0469C35.0469 338.48 34.385 336.359 36.3705 335.652C38.356 334.945 36.3705 329.289 36.3705 329.289L46.9599 286.872L62.8439 251.525C62.8439 251.525 72.1096 283.337 74.0951 286.872C74.0951 286.872 81.3753 326.462 82.699 329.996C84.0227 333.531 84.6845 333.531 84.0227 334.945C83.3608 336.359 83.3608 337.773 84.0227 338.48C84.6845 339.187 97.2594 338.48 97.2594 338.48L93.9502 288.286L87.9937 228.195L57.5493 218.298L34.1583 222.539Z" fill="#2F2E41"/>
<path d="M32.3989 332.824C32.3989 332.824 29.0897 320.099 23.795 329.996C18.5003 339.894 18.5003 343.429 18.5003 343.429C18.5003 343.429 9.89648 356.861 21.8095 355.447C33.7225 354.033 31.0752 347.67 31.0752 347.67C31.0752 347.67 35.7081 344.842 35.7081 342.722C35.7081 340.601 32.3989 332.824 32.3989 332.824Z" fill="#2F2E41"/>
<path d="M86.0084 331.41C86.0084 331.41 89.3176 318.685 94.6123 328.582C99.9069 338.48 99.9069 342.014 99.9069 342.014C99.9069 342.014 108.511 355.447 96.5978 354.033C84.6847 352.619 87.3321 346.256 87.3321 346.256C87.3321 346.256 82.6992 343.428 82.6992 341.308C82.6992 339.187 86.0084 331.41 86.0084 331.41Z" fill="#2F2E41"/>
<path d="M54.9008 127.102C54.9008 127.102 56.2245 136.292 52.2535 138.413C48.2825 140.534 60.8573 148.31 64.1665 148.31C67.4757 148.31 73.4322 141.241 73.4322 141.241C73.4322 141.241 70.123 130.636 70.7849 128.515L54.9008 127.102Z" fill="#FFB9B9"/>
<path d="M62.1817 134.17C69.8577 134.17 76.0803 127.524 76.0803 119.325C76.0803 111.125 69.8577 104.479 62.1817 104.479C54.5058 104.479 48.2832 111.125 48.2832 119.325C48.2832 127.524 54.5058 134.17 62.1817 134.17Z" fill="#FFB9B9"/>
<path d="M89.3171 149.724L72.7717 139.017C72.7717 139.017 63.3579 150.431 53.1733 137.706L35.7084 142.655L38.3558 190.727C38.3558 190.727 34.3848 209.815 35.7084 213.35C37.0321 216.885 32.3993 218.299 33.7229 219.006C35.0466 219.713 33.7229 224.661 33.7229 224.661C33.7229 224.661 59.5345 238.8 87.9934 228.196L85.346 219.006C85.7064 217.804 85.7739 216.525 85.5423 215.288C85.3107 214.05 84.7875 212.897 84.0224 211.936C84.0224 211.936 86.6697 207.694 83.3605 204.16C83.3605 204.16 84.6842 197.797 81.375 194.969L80.7132 185.072L82.6987 180.123L89.3171 149.724Z" fill="#CFCCE0"/>
<path d="M55.0682 112.432C55.0682 112.432 53.4112 116.262 60.0392 114.73C60.0392 114.73 62.5247 116.262 62.5247 113.964C62.5247 113.964 65.8386 117.794 66.6671 115.496C67.4956 113.198 69.1526 116.262 69.1526 116.262L70.8096 112.432L72.4666 114.73H78.2661C78.2661 114.73 79.923 99.4086 60.0392 100.941C40.1554 102.473 49.9372 126.748 49.9372 126.748C49.9372 126.748 50.0973 122.391 51.7543 124.689C53.4112 126.987 55.0682 112.432 55.0682 112.432Z" fill="#2F2E41"/>
<path d="M95.2736 178.002L95.9354 192.848C95.9354 192.848 98.5828 220.419 93.2881 232.437V238.8C93.2881 238.8 91.9644 255.06 85.3461 254.353C78.7277 253.646 87.3316 231.023 87.3316 231.023L86.0079 199.917L84.6842 182.244L95.2736 178.002Z" fill="#FFB9B9"/>
<path d="M82.0366 150.431L88.6388 149.285C93.3946 154.166 96.6343 160.488 97.9207 167.398C99.9062 178.709 100.568 180.83 100.568 180.83L84.6839 185.072L76.0801 167.398L82.0366 150.431Z" fill="#CFCCE0"/>
<path d="M54.3234 154.618C54.0119 154.619 53.7132 154.751 53.4929 154.986C53.2727 155.221 53.1488 155.54 53.1484 155.873V251.761C53.1487 252.094 53.2726 252.413 53.4929 252.648C53.7132 252.883 54.0119 253.016 54.3234 253.016H259.239C259.551 253.016 259.849 252.883 260.07 252.648C260.29 252.413 260.414 252.094 260.414 251.761V155.873C260.414 155.54 260.29 155.221 260.07 154.986C259.849 154.751 259.551 154.619 259.239 154.618H54.3234Z" fill="#6C63FF"/>
<path d="M231.51 173.536H82.0536C81.6801 173.535 81.3222 173.376 81.0584 173.093C80.7946 172.811 80.6465 172.428 80.6465 172.03C80.6465 171.631 80.7946 171.248 81.0584 170.966C81.3222 170.683 81.6801 170.524 82.0536 170.523H231.51C231.884 170.523 232.243 170.682 232.507 170.965C232.772 171.247 232.92 171.63 232.92 172.03C232.92 172.429 232.772 172.812 232.507 173.095C232.243 173.377 231.884 173.536 231.51 173.536V173.536Z" fill="white"/>
<path d="M231.51 185.584H82.0536C81.6801 185.584 81.3222 185.425 81.0584 185.142C80.7946 184.86 80.6465 184.477 80.6465 184.078C80.6465 183.679 80.7946 183.297 81.0584 183.014C81.3222 182.732 81.6801 182.573 82.0536 182.572H231.51C231.884 182.572 232.243 182.731 232.507 183.013C232.772 183.296 232.92 183.679 232.92 184.078C232.92 184.478 232.772 184.861 232.507 185.143C232.243 185.426 231.884 185.584 231.51 185.584Z" fill="white"/>
<path d="M231.51 197.633H82.0536C81.6801 197.632 81.3222 197.473 81.0584 197.191C80.7946 196.909 80.6465 196.526 80.6465 196.127C80.6465 195.728 80.7946 195.346 81.0584 195.063C81.3222 194.781 81.6801 194.622 82.0536 194.621H231.51C231.696 194.621 231.879 194.659 232.051 194.735C232.222 194.81 232.378 194.921 232.509 195.061C232.641 195.201 232.745 195.367 232.816 195.55C232.887 195.733 232.923 195.929 232.923 196.127C232.923 196.325 232.887 196.521 232.816 196.704C232.745 196.887 232.641 197.053 232.509 197.193C232.378 197.333 232.222 197.444 232.051 197.52C231.879 197.595 231.696 197.634 231.51 197.633V197.633Z" fill="white"/>
<path d="M231.51 209.591H82.0536C81.6801 209.59 81.3222 209.431 81.0584 209.149C80.7946 208.867 80.6465 208.484 80.6465 208.085C80.6465 207.686 80.7946 207.304 81.0584 207.021C81.3222 206.739 81.6801 206.58 82.0536 206.579H231.51C231.696 206.579 231.879 206.617 232.051 206.693C232.222 206.768 232.378 206.879 232.509 207.019C232.641 207.159 232.745 207.325 232.816 207.508C232.887 207.691 232.923 207.887 232.923 208.085C232.923 208.283 232.887 208.479 232.816 208.662C232.745 208.845 232.641 209.011 232.509 209.151C232.378 209.291 232.222 209.402 232.051 209.478C231.879 209.553 231.696 209.592 231.51 209.591V209.591Z" fill="white"/>
<path d="M231.511 221.64H82.0545C81.6805 221.64 81.3219 221.481 81.0575 221.199C80.7931 220.917 80.6445 220.533 80.6445 220.134C80.6445 219.735 80.7931 219.352 81.0575 219.069C81.3219 218.787 81.6805 218.628 82.0545 218.628H231.511C231.885 218.628 232.244 218.787 232.508 219.069C232.773 219.352 232.921 219.735 232.921 220.134C232.921 220.533 232.773 220.917 232.508 221.199C232.244 221.481 231.885 221.64 231.511 221.64V221.64Z" fill="white"/>
<path d="M193.574 231.665C193.468 231.665 193.365 231.711 193.29 231.791C193.214 231.872 193.172 231.981 193.172 232.095V243.496C193.172 243.61 193.214 243.719 193.29 243.8C193.365 243.88 193.468 243.926 193.574 243.926H230.909C231.015 243.926 231.118 243.88 231.193 243.8C231.269 243.719 231.311 243.61 231.311 243.496V232.095C231.311 231.981 231.269 231.872 231.193 231.791C231.118 231.711 231.015 231.665 230.909 231.665H193.574Z" fill="white"/>
<path d="M25.7811 169.518C25.7811 169.518 19.8246 196.382 27.1048 196.382C34.385 196.382 51.5927 165.983 51.5927 165.983C51.5927 165.983 69.4622 156.086 62.182 152.551C54.9019 149.017 45.6362 158.207 45.6362 158.207L34.9449 174.062L34.385 165.983L25.7811 169.518Z" fill="#FFB9B9"/>
<path d="M39.6787 146.896L35.7077 142.654C35.7077 142.654 27.7657 147.603 27.1038 152.552C26.442 157.5 23.1328 173.053 23.1328 173.053L35.3768 174.114L39.3478 167.751L39.6787 146.896Z" fill="#CFCCE0"/>
</g>
<defs>
<clipPath id="clip0">
<rect width="528" height="370" fill="white"/>
</clipPath>
</defs>
</svg>
